<?xml version="1.0"?><svg width="640" height="480.00000000000006" xmlns="http://www.w3.org/2000/svg" xmlns:xlink="http://www.w3.org/1999/xlink">
 <title>tropical flower</title>
 <defs>
  <linearGradient id="svg_19">
   <stop offset="0.460938" stop-opacity="0.996094" stop-color="#00bfbf"/>
   <stop offset="0.910156" stop-opacity="0.996094" stop-color="#aaffff"/>
  </linearGradient>
  <linearGradient y2="0" x2="1" y1="0" x1="0" id="svg_20">
   <stop offset="0.460938" stop-opacity="0.992188" stop-color="#bc0019"/>
   <stop offset="0.910156" stop-opacity="0.996094" stop-color="#7f0000"/>
  </linearGradient>
 </defs>
 <metadata id="metadata8159">image/svg+xml</metadata>
 <g>
  <title>Layer 1</title>
  <image xlink:href="images/logo.png" id="svg_1" height="34" width="2" y="348" x="40"/>
  <g externalResourcesRequired="false" id="svg_2">
   <path id="svg_18" fill="#bf9e82" d="m439.337982,242.459061c-8.171722,-0.847519 -15.300964,-6.42305 -18.163696,-13.521362c-2.067108,-4.519775 -3.917816,-9.442871 -3.286499,-14.419968c0.415741,-1.194504 0.772644,-3.835037 1.838684,-1.481949c5.054626,6.737274 11.508179,12.781387 19.478271,16.470123c4.850983,2.296127 10.559448,2.687698 15.823608,1.578674c2.268707,-0.555069 6.386902,-1.875061 4.827972,-4.734146c-1.433441,-2.169998 -4.521149,-2.327652 -6.916748,-3.013229c-6.851074,-1.313232 -14.425812,-0.908569 -20.411285,-4.794571c-3.022766,-1.891418 -5.398346,-4.49353 -7.97934,-6.850525c4.726288,-0.183807 10.013947,-0.616745 13.43689,-4.049408c1.98465,-1.795334 3.083008,-4.245575 5.030396,-6.070221c3.438507,-1.611252 7.369659,0.004044 10.563995,1.398239c4.895386,2.21109 9.131989,5.841782 11.307983,10.537674c2.844421,5.211105 5.23114,10.642334 7.127014,16.213669c0.459442,2.853134 -2.162415,5.072861 -4.282227,6.751511c-6.83667,4.878204 -15.764893,6.396408 -24.202881,6.291824c-1.401581,-0.039398 -2.801239,-0.14032 -4.192139,-0.306335zm-44.681824,45.26265c-8.944824,-4.55777 -15.276855,-13.408661 -16.047668,-22.908051c-0.625183,-6.934479 1.076324,-14.403503 6.02063,-19.785431c2.260834,-2.297424 5.269379,-4.006622 8.573517,-4.602036c-0.657501,3.874557 -2.847534,7.342239 -3.613007,11.199875c-1.638519,6.22525 -2.512115,13.17395 0.595154,19.135162c0.902863,2.017792 4.528198,6.370789 6.266998,2.87323c1.18515,-3.483551 0.859375,-7.231415 1.07785,-10.843658c0.300537,-8.543579 0.500366,-17.423126 4.261719,-25.373123c1.62915,-3.039902 4.282715,-6.120773 8.035004,-6.805649c3.584869,0.020569 5.901093,3.136124 7.682373,5.649658c4.435242,7.060013 3.674164,15.880035 0.690247,23.289154c-3.431305,9.446228 -11.284454,16.693542 -15.69101,25.667908c-0.256927,2.850159 -2.966034,5.368011 -5.881226,3.332092c-0.667969,-0.25293 -1.320892,-0.538361 -1.970581,-0.829132z" stroke="#7f3f00" stroke-width="0"/>
   <path id="svg_14" fill="#ff7f00" d="m127.358597,213.75769c-7.501373,-5.718994 -7.286453,-21.508514 -21.402054,-15.879822c-13.628448,-1.426788 -16.887695,-17.012756 -10.453156,-26.25827c5.504227,-10.252563 16.345108,-17.356567 20.905365,-28.11087c-10.730652,-5.322021 -16.167114,8.218445 -19.47261,15.150269c-5.216278,9.98941 -10.392899,22.097534 -22.4356,26.584686c-13.909683,3.952484 -8.867355,-17.091766 -20.128464,-13.278259c-11.360626,3.600677 -18.272659,-7.756409 -8.671379,-14.065887c0.19931,-11.257874 1.582092,-23.261597 14.620415,-28.674316c16.108551,-9.990967 37.56472,-12.605682 55.92585,-6.534485c-8.630142,7.650299 -23.731903,3.138275 -32.53212,11.355469c-9.026161,8.669617 5.603409,17.502838 13.79071,9.825836c8.776138,-2.096985 24.115738,-17.828796 29.186844,-5.933685c-4.405914,7.420044 -16.358139,23.717072 1.225418,24.401337c11.108917,-3.595428 12.341354,16.510162 21.735031,6.689209c5.818619,-9.684723 -4.652023,-18.476593 -5.080383,-28.25c2.769852,-11.542999 6.382584,5.547394 8.627563,9.618347c7.017975,13.961548 22.637726,25.678741 20.820007,42.383514c-4.981354,9.555023 -17.757797,12.846191 -23.622528,21.988159c-6.541489,4.683044 -17.571365,5.611877 -23.03891,-1.01123zm-9.493912,-117.890579c-21.719742,-2.661331 -45.553711,-12.617584 -53.094559,-32.762558c-5.293449,-11.186005 13.170609,-14.928818 7.025421,-24.920959c-0.710846,-12.463104 17.505814,-20.550964 27.347046,-11.417999c8.221649,7.852921 18.628006,-6.292831 26.038727,4.559906c9.119797,8.704956 5.400833,20.634537 4.180832,31.105179c-0.325851,9.646271 2.114548,19.210434 5.847549,28.190918c-7.185516,2.549484 -9.516815,-13.328873 -14.353394,-17.794617c-4.002167,-7.233109 -9.5914,-19.37442 -20.8134,-15.730042c-7.541901,7.375183 3.259933,17.041565 6.775574,24.255188c2.886383,4.359299 22.222839,13.436523 11.046204,14.514984l0,0zm78.343399,-12.359558c-13.959534,6.062347 -25.365692,16.00621 -34.998444,26.839584c10.463455,3.938324 17.856552,-12.276779 27.836548,-5.95343c2.3004,5.140961 -3.290878,11.615753 6.905304,10.514404c13.050949,-4.161041 19.384689,14.211945 5.298325,16.035339c-7.356583,1.927856 -21.301208,-7.827087 -15.318817,4.002563c3.939301,13.154236 -18.148514,10.310638 -20.736542,0.604614c-2.343185,-5.398895 -10.948288,-12.824341 -11.153732,-2.445282c1.04216,9.740936 6.783615,18.855957 13.179825,26.591034c7.653503,8.194336 18.221085,16.287842 30.630875,16.233643c13.287888,-1.13446 22.086655,-13.033447 22.735245,-24.43161c5.25824,-9.062042 20.171265,-7.541779 25.292633,-17.303253c7.832947,-9.786926 7.142883,-26.39978 -5.51178,-32.639984c-7.989838,-7.879715 -11.61319,-22.81665 -26.656647,-21.025635c-5.987549,-0.178833 -11.928162,1.066956 -17.502792,2.978012zm-5.597702,-61.701218c-10.069611,1.11496 -11.895386,20.47493 -21.02475,9.076965c-10.904892,-5.717087 -20.698486,4.808243 -25.761108,12.500381c-10.103836,16.928879 -6.838028,37.575485 0.280899,54.854538c5.787964,4.623993 -1.210693,-8.72287 0.797333,-11.570755c0.988907,-7.009232 2.185562,-20.93222 11.380219,-21.608475c2.458313,5.82486 8.956161,10.374557 11.323105,1.366608c6.490112,-9.630768 23.390274,-0.110138 11.29863,7.886032c-8.521027,8.776047 -21.300491,17.465012 -21.916443,29.869247c8.09996,-1.274872 13.903381,-13.367325 23.180527,-16.568542c10.519882,-6.761246 23.147598,-10.006775 34.040894,-16.032043c11.428619,-6.674622 12.389465,-22.367706 0.028198,-27.712448c-0.091064,-10.770859 -3.611847,-25.70372 -19.491638,-22.987595l-2.102646,0.360886l-2.033218,0.565201l0,0z" stroke="#7f3f00" stroke-width="0"/>
   <path id="svg_15" fill="#00cbff" d="m30.338867,129.758499c-4.085575,-2.841614 -15.665762,1.949203 -13.380932,-6.015739c-2.346672,-3.641998 -10.811016,-7.289536 -3.733753,-11.366196c5.305164,-2.987183 -1.433552,-8.814728 4.967325,-11.315338c4.387541,-3.357651 7.233965,1.693092 4.870525,4.856903c1.42564,6.975487 11.668337,5.65345 16.792086,2.734947c5.166702,-1.458992 2.684238,-6.036179 -1.884609,-5.57505c-7.034416,-1.733643 -0.393112,-10.382721 3.993416,-5.075661c1.604614,5.127426 7.442532,9.776955 13.26516,5.891479c4.062508,-2.319672 0.627605,-5.354599 -2.942516,-5.513008c-5.206131,-1.966927 -1.653168,-10.384666 3.130486,-6.330482c2.35458,4.397499 5.0434,12.158524 12.414825,9.324394c5.019501,-2.403404 -0.314217,-6.339592 -3.20842,-7.666611c-3.537407,-5.274368 7.862183,-8.061317 6.726357,-1.413055c-0.831558,6.74675 6.709045,8.751144 12.898468,7.269272c11.313599,-1.206688 22.839714,-0.078316 33.903366,2.158096c10.860382,2.43187 21.640533,6.601173 29.662781,13.566589c3.882202,5.437981 -3.486404,13.275322 -10.368118,10.730774c-8.133224,-1.701973 -14.192909,-7.258301 -21.975151,-9.713203c-14.428757,-6.136963 -30.202545,-10.519081 -46.383369,-10.47419c-7.576569,1.199265 0.397942,11.228111 -6.816116,12.458885c-6.743408,-0.872559 -2.835709,-8.709602 0.514107,-10.269066c-2.603329,-4.757362 -12.940193,-0.695251 -12.414543,4.23391c0.966518,3.815605 -0.18742,11.091339 -6.251541,7.103584c-4.695374,-4.323776 6.497471,-5.7547 3.476742,-9.767754c-4.872326,-2.511818 -10.378204,2.443901 -13.939209,5.094963c-5.203438,4.610313 3.953312,9.074135 1.341522,13.883797c-1.107796,1.220947 -2.997101,1.470016 -4.658886,1.187759z" stroke="#7f3f00" stroke-width="0"/>
   <path id="svg_17" fill="#ff7f00" d="m125.697052,267.09671c3.488129,-3.74115 -2.392487,-14.344696 7.384155,-12.252563c4.47049,-2.148773 8.947784,-9.899292 13.951721,-3.418884c3.666748,4.857788 10.819855,-1.312653 13.889221,4.548523c4.12149,4.017426 -2.078156,6.62384 -5.961761,4.459656c-8.562042,1.30542 -6.939331,10.684418 -3.357025,15.375916c1.791046,4.731079 7.40921,2.457947 6.843292,-1.725586c2.127899,-6.441223 12.744568,-0.359955 6.230164,3.656616c-6.293762,1.469299 -12.000854,6.81488 -7.231537,12.146423c2.847321,3.71991 6.572662,0.574677 6.766968,-2.694305c2.414368,-4.767151 12.746918,-1.513641 7.770477,2.866455c-5.397797,2.156036 -14.924164,4.618073 -11.445435,11.367859c2.950104,4.596191 7.781677,-0.28772 9.410675,-2.937866c6.47403,-3.239075 9.894958,7.199097 1.734406,6.159088c-8.281586,-0.761414 -10.741821,6.14325 -8.922913,11.810699c1.481293,10.359497 0.0961,20.913574 -2.648987,31.044098c-2.984985,9.944641 -8.10257,19.815582 -16.652557,27.161377c-6.674957,3.554657 -16.294983,-3.192352 -13.17157,-9.493835c2.089111,-7.447296 8.909363,-12.995911 11.922607,-20.121887c7.532928,-13.211884 12.911835,-27.655457 12.85675,-42.47168c-1.472076,-6.937683 -13.782196,0.364319 -15.292999,-6.241364c1.071014,-6.174683 10.690918,-2.596558 12.605042,0.470825c5.8396,-2.383728 0.853485,-11.848846 -5.196991,-11.367523c-4.683533,0.884888 -13.614288,-0.171631 -8.719421,-5.724335c5.307312,-4.299438 7.063782,5.949463 11.989624,3.183411c3.08313,-4.461304 -2.999878,-9.502838 -6.253906,-12.76358c-5.659058,-4.764648 -11.138275,3.619904 -17.04184,1.228363c-1.498718,-1.014282 -1.804596,-2.744263 -1.45816,-4.2659z" stroke="#7f3f00" stroke-width="0"/>
   <path id="svg_16" fill="#2eb8d1" d="m34.703857,351.467255c4.343475,-5.878082 14.692688,-4.64505 18.94165,-10.611206c-2.959869,-6.492889 -0.774384,-15.963837 7.881927,-18.231415c11.745026,-3.589142 23.93573,2.244049 32.342773,8.994293c5.800873,3.919739 11.610138,8.034485 18.523438,10.452911c5.318512,-5.414703 -2.696289,-11.568695 -8.548401,-13.319611c-12.734802,-5.688324 -27.924225,-9.377838 -36.462585,-19.998444c-3.754608,-5.422974 1.512268,-15.036804 9.640289,-12.903076c7.927246,0.239166 5.102173,-8.406219 2.734314,-11.773132c0.182983,-7.187042 11.399658,-9.567444 15.183533,-3.227722c7.113251,3.939758 16.844757,-1.674805 23.332397,3.735016c17.625916,12.511841 24.305908,34.255188 18.836884,52.952362c-0.607635,3.101746 -2.339417,7.727905 -4.705536,2.677155c-2.552917,-4.981689 -0.285004,-10.937408 -3.844421,-15.662292c-2.263916,-5.273926 -4.906708,-12.376373 -12.384369,-13.408142c-6.70517,-0.519592 -8.327271,7.119446 -6.099213,11.332092c2.681366,5.523163 6.874298,10.430725 9.796326,15.88208c1.074341,3.692505 7.348633,8.55069 3.004608,11.685303c-5.232086,2.720673 -10.717865,-1.227661 -14.86499,-3.766235c-4.559814,-4.261627 -15.260345,-3.71167 -16.647125,2.700684c2.239594,5.137085 0.547089,10.870361 -6.503479,12.382507c-9.067291,2.675385 -1.501007,12.952545 6.193909,10.674408c9.67984,-1.961243 19.068665,-5.836182 29.209534,-5.848358c4.329926,5.903168 -9.406464,3.676178 -12.954407,6.393646c-15.411682,5.727631 -27.636536,17.758179 -45.077454,19.239075c-8.288147,0.759552 -13.31366,-6.085632 -17.012955,-11.337463c-4.517532,-5.132263 -13.149811,-7.678894 -14.769485,-14.531616c-2.044922,-4.928162 -1.022675,-11.298737 4.252838,-14.482819zm130.377747,-8.14621c2.503967,-15.370972 10.006409,-31.055756 24.811279,-40.704681c6.48941,-3.999939 14.899292,-6.328979 22.864502,-4.711975c3.74588,1.4935 3.369568,6.360138 7.479828,7.417999c4.788696,0.060028 9.518127,-2.753571 14.332489,-1.087219c9.210266,3.040802 14.414734,13.432831 9.299164,20.9216c-2.953369,2.301605 -8.163605,5.825806 -4.904663,9.634888c3.294067,3.335571 4.076355,8.853088 0.231049,12.120422c-6.481049,7.331573 -18.58548,9.508972 -28.607361,7.097992c-10.52832,-1.672913 -21.460419,-0.820709 -31.621216,1.981018c-3.363068,0.484955 -7.705536,2.646454 -10.335663,2.437286c-0.432892,-4.047424 5.214081,-4.796692 8.404816,-6.327118c10.555389,-5.262268 22.722198,-8.805023 31.10675,-16.73288c2.741608,-3.241638 1.171143,-9.230835 -4.000946,-9.726959c-7.141632,-0.408203 -13.07901,3.584259 -19.097839,6.231873c-5.808258,3.210266 -10.9953,7.361237 -14.621063,12.423981c2.247192,4.952484 -9.868835,2.712524 -5.341125,-0.976227zm13.668427,67.222198c-6.698242,-11.981354 -17.706329,-21.760773 -29.682251,-30.030121c-2.856171,6.435333 4.603119,11.198578 7.308899,16.53891c4.615967,4.886322 -5.143311,13.056091 -8.77005,6.133118c-8.321136,2.824432 1.119446,13.016724 -6.796661,16.989563c-6.596008,5.176514 -16.388062,-1.553345 -15.046173,-8.295441c-0.893341,-4.11908 7.704376,-10.410889 2.321991,-12.648254c-4.651154,3.627258 -14.504486,5.445099 -16.02243,-1.693451c-1.150726,-8.533569 8.207581,-15.054688 16.899109,-17.342255c6.916809,-5.479858 -6.779266,-7.661469 -10.897339,-4.643982c-18.17395,3.580811 -33.830322,15.235016 -40.839203,29.938965c-2.81427,8.294861 2.370483,17.664001 11.114136,21.740204c6.039673,5.011169 18.121368,1.319641 21.493073,9.223694c2.00769,6.78186 6.468079,12.708038 13.153687,16.796112c10.025665,6.084045 25.696991,6.062683 34.036804,-2.265106c3.850189,-7.620758 15.132019,-8.188965 21.067017,-13.921875c5.970886,-7.889008 4.386444,-18.188232 0.659393,-26.520081zm68.236786,-4.803009c-2.779297,-6.075745 -9.590912,-9.905548 -16.374939,-12.318207c5.190948,-3.314117 10.614319,-9.253326 7.407776,-14.996033c-7.69577,-12.444977 -24.82077,-18.506439 -40.726196,-18.22998c-12.591187,-0.000977 -25.225586,2.220032 -36.831665,6.338379c-3.474976,3.714874 5.864471,0.03772 7.951141,0.281891c10.280121,-1.225433 21.085205,0.963165 29.662994,5.866486c5.448303,4.580688 -2.603943,5.442688 -6.169464,6.711731c-2.913818,4.665924 6.347382,5.947998 8.25235,9.785217c4.060822,3.009216 3.363678,9.99118 -2.940704,10.052521c-6.984558,0.157196 -10.497253,-5.976654 -15.253998,-9.306549c-7.391663,-6.394318 -16.338135,-12.15451 -26.942261,-13.719757c-1.756042,4.225922 6.668518,5.665283 8.523956,9.217255c10.665558,9.311218 17.943848,20.969971 23.514679,32.988037c3.561218,7.06189 9.769775,14.343109 19.380005,15.366699c6.015503,0.938568 13.818573,-1.555176 14.735535,-7.283295c3.346375,-4.562958 11.04303,1.201202 16.033417,-1.908752c6.767609,-1.414856 11.020294,-7.072876 10.932007,-12.840393c0.085999,-2.039825 -0.275391,-4.102722 -1.154633,-6.005249z" stroke="#7f3f00" stroke-width="0"/>
   <g id="svg_21">
    <path id="svg_3" fill="#c1a081" d="m563.235229,172.434479c-21.184448,4.185516 -43.59082,12.752197 -65.331451,5.864441c-5.276825,1.08078 -23.173462,-3.58989 -10.768127,-6.936829c8.029755,-2.653473 27.248993,-1.208481 28.670013,-2.744247c-9.053772,-2.070007 -24.86087,0.648346 -29.926941,-1.205002c23.747131,-11.808121 56.009094,-9.577133 77.356506,5.021637zm6.085083,-33.115311c-12.604248,8.796036 -27.053284,20.123077 -44.869629,17.383072c-7.759033,-1.593536 -23.389038,3.466309 -26.559906,-1.382599c11.053009,-5.920135 24.418976,-6.937637 36.598358,-10.426453c-10.417542,-3.0784 -20.714661,2.495895 -31.086243,2.464844c6.931763,-6.326828 23.535706,-10.162872 35.741638,-10.795013c10.146606,-0.570831 20.409912,0.37944 30.175415,2.756119m5.255066,-25.941833c-12.553467,7.645058 -23.366577,20.3759 -40.455261,20.034439c-6.51709,-1.801086 -20.661072,6.631287 -22.245972,0.50473c10.210876,-5.925407 22.097534,-9.372597 34.007568,-12.022583c-12.347107,0.821899 -24.481384,3.650887 -35.630798,8.16626c16.435913,-14.003349 41.398926,-20.107918 64.324402,-16.682846m-66.928558,-59.097416c11.910065,35.081829 3.112457,74.128895 -20.34436,104.491108c-14.755432,16.381973 -35.660156,28.019821 -57.532379,36.745682c0.897217,-9.457748 14.054779,-10.151672 21.90683,-13.886917c8.354614,-5.667984 16.692474,-11.681961 23.809296,-18.587234c23.177612,-23.172302 34.630676,-53.727409 35.27063,-83.73661c-0.036255,-8.592155 -1.183075,-17.188618 -3.548431,-25.551208l0.254395,0.088947l0.184021,0.436234zm22.523285,151.415989c-21.87381,-1.576797 -45.391754,0.153885 -65.154541,-9.384155c-11.499847,3.436462 -11.717407,-13.372452 -0.055481,-8.062332c13.172424,-0.611191 26.264862,2.016586 38.460052,6.032639c-13.100891,-7.517914 -29.598083,-8.988419 -45.066833,-8.306412c22.41037,-8.269394 52.883026,-4.296265 66.797394,13.783783c1.756104,1.928238 3.410706,3.920151 5.019409,5.936478zm-90.592987,-118.436348c22.940186,0.434555 47.523193,13.042938 51.74585,33.030022c4.980042,4.046852 -3.131561,15.982773 -4.681427,5.522621c-5.151855,-9.163322 -12.457855,-17.856659 -22.833527,-23.308769c11.180115,12.004982 22.475403,26.155441 20.747742,42.132019c-3.755829,-15.001083 -18.95401,-24.679245 -30.466949,-35.489731c-6.212585,-6.564217 -11.281036,-13.937744 -14.511932,-21.886162m1.168793,23.17057c20.34668,7.748138 37.518799,26.048538 33.53595,45.596237c-8.73349,-3.996536 -3.660797,-21.52562 -14.080688,-20.674088c3.837189,8.160797 6.220886,16.930725 4.802673,25.777893c-0.438934,4.252731 -4.506165,15.297455 -4.532806,5.597778c-3.903748,-19.432434 -21.011627,-35.963516 -19.725433,-56.297852m-18.252472,15.748962c16.430847,8.38327 32.608887,22.445969 30.912354,39.807449c3.122223,5.96991 -11.413971,16.315353 -7.850616,4.891205c1.434875,-8.514114 -4.376343,-22.877258 -8.123718,-26.093933c5.891388,11.343369 5.065887,24.201096 2.165436,36.066666c0.534363,-18.465103 -21.43985,-32.261642 -17.47406,-51.135849l0.147583,-1.77066l0.224915,-1.764908m160.452606,-32.086739c-15.832764,7.637207 -31.115356,17.468132 -49.707886,19.613945c-4.073364,3.541344 -19.306213,3.267799 -7.785706,-1.860039c5.583252,-4.228073 23.372742,-9.152939 22.455994,-11.381165c-9.965454,2.016281 -19.067566,6.147568 -28.842834,8.652061c14.749207,-15.042206 41.910706,-25.315224 63.880432,-15.024803zm-11.533203,-27.185135c-13.551208,15.034492 -33.306274,24.68663 -52.175537,34.312019c6.983276,-10.484947 18.993896,-17.492836 30.133423,-24.604324c-9.554749,-0.16642 -19.114868,16.322418 -25.483398,10.444839c8.092529,-14.861633 29.352051,-20.682579 47.525513,-20.152534zm-3.621948,-28.461227c-1.54425,13.906979 -13.602905,25.743484 -28.544739,31.218277c-6.679993,3.072258 -15.205688,12.778931 -18.881897,13.628899c4.493042,-10.491913 14.036194,-18.54837 22.324341,-26.977451c-10.287537,3.798149 -14.564514,13.939541 -24.937378,17.631855c2.651855,-20.25703 26.210999,-35.91888 50.039673,-35.501579zm-26.958496,-20.326248c0.224976,12.096691 -4.415527,24.814228 -15.227661,33.185276c-0.160217,5.996819 -11.485352,8.870979 -5.8078,0.635376c1.755127,-3.30978 6.35321,-11.582882 3.449585,-11.940899c0.279541,4.406273 -10.233398,14.237137 -7.755676,4.189846c3.28186,-11.294979 13.142029,-20.801666 25.341553,-26.069599zm-48.71637,-14.280554c13.296814,3.963916 25.195251,15.589982 21.937988,28.005595c3.594055,4.659737 -8.499878,9.707855 -4.629883,2.425396c1.709961,-4.396999 -8.736115,-19.453461 -4.046021,-7.719067c3.217896,3.559587 1.347382,19.341072 -3.979034,10.411545c-5.499084,-10.369698 -11.229279,-21.499679 -9.283051,-33.123469zm-44.112762,65.211409c25.6427,-1.257759 50.231171,16.612732 52.504089,38.076866c-5.18399,-6.677467 -13.573059,-19.298752 -19.1091,-20.711212c8.937256,9.00753 14.61084,20.012482 17.957581,31.321877c-9.830566,-14.29911 -25.687073,-24.500359 -40.263855,-35.127266c-4.184296,-4.224518 -7.603363,-8.924995 -11.088715,-13.560265zm58.448029,15.217453c-8.302002,-8.416321 -16.091522,-18.012146 -28.306458,-22.704903c12.162933,8.817444 21.695679,20.439476 25.969696,33.516747c-10.279694,-12.516281 -25.455811,-21.173347 -38.75177,-31.162075c-9.479156,-5.049042 -6.855164,-19.669155 5.984039,-13.440048c17.514954,5.466156 29.228363,19.429661 35.104492,33.790279zm-44.849396,-57.152c22.957458,0.432043 43.536194,17.667446 43.856018,36.980705c-4.880157,-3.718174 -11.534027,-16.490551 -15.257935,-14.981159c2.948303,3.889278 13.09137,14.437767 8.915466,15.763828c-11.577698,-9.421719 -28.980713,-15.623878 -33.284943,-29.856167c-1.419739,-2.630768 -3.228455,-5.127337 -4.228607,-7.907207z" stroke="#7f3f00" stroke-width="0"/>
    <g id="svg_4" fill="#cdde87">
     <g id="svg_5" fill="#cdde87">
      <g id="svg_6" fill="#cdde87">
       <g id="svg_7" fill="#cdde87">
        <path id="svg_8" fill="#ceb9a5" d="m523.981934,242.640488c2.035156,-0.123764 3.5802,-1.867889 4.238098,-4.786041c0.312561,-1.382645 0.452026,-2.749649 0.452026,-4.087631c0,-10.186188 -8.106873,-18.684158 -9.992004,-19.859604c0.002747,0.00444 0.013367,0.026108 0.013367,0.026108c1.584961,2.469406 2.145264,4.750931 2.145264,6.917007c0,2.669159 -0.851501,5.16095 -1.687134,7.607986c-0.753845,2.205566 -1.479309,4.328354 -1.479309,6.432571c0,1.016663 0.169678,2.028885 0.586975,3.044815c1.208496,2.947952 3.507324,4.838959 5.722717,4.704788m35.47644,8.833389c1.218201,-0.174423 2.012085,-1.548141 1.975647,-3.417557l0,-0.000717c-0.273499,-14.042007 -5.510498,-21.401108 -7.38678,-22.493042c-0.228149,-0.13269 -0.316101,-0.11554 -0.316956,-0.11554c-0.044312,0.035812 -0.124207,0.368958 0.356995,1.328262c2.681458,5.354019 1.808655,9.288788 1.038879,12.760757c-0.572754,2.580429 -1.113525,5.018555 -0.06842,7.649704c1.359375,3.435379 3.220581,4.456558 4.400635,4.288132m-2.437378,-98.85997c7.19574,11.076965 9.435181,18.555237 6.846802,22.86351c-3.797729,6.308792 -13.296753,10.746719 -20.928528,14.312561c-6.948059,3.246841 -12.94873,6.050171 -12.275635,9.070419c0.307251,1.37674 1.360291,2.353897 2.965698,2.751923c2.887512,0.715561 6.686157,-0.533691 9.674927,-3.181259l1.565369,-1.495193c7.193176,-7.057907 26.299622,-25.806198 62.543213,-2.203293c0.064819,0.041687 0.096802,0.110306 0.083374,0.178131c-1.712708,8.48378 -11.470215,13.000702 -27.476929,12.719696c-7.486206,-0.128922 -12.066101,1.926834 -12.169128,3.98848c-0.08252,1.653992 2.884888,3.748505 11.520874,4.207642c4.3349,0.230331 8.881165,-0.295166 13.693726,-0.851929c14.571838,-1.68457 29.640015,-3.426468 41.0224,15.394852c0.033752,0.054398 0.031921,0.12001 -0.003601,0.174393c-0.068298,0.103622 -7.059875,10.292099 -26.654724,1.757629c-8.926392,-3.888626 -11.559937,-3.515182 -12.335144,-2.94722c-0.667725,0.489685 -0.380066,1.384933 -0.225525,1.747131c1.053955,2.466431 5.409241,4.126389 10.452759,6.047974c7.968262,3.036606 17.886353,6.815613 21.487,15.792877c3.874939,9.665253 -3.356445,20.462646 -7.465637,24.183533c-0.061401,0.055908 -0.156372,0.074524 -0.240723,0.047668c-1.343506,-0.425537 -2.965698,-0.746124 -4.844604,-1.117249c-5.215759,-1.030151 -12.35907,-2.441101 -18.905762,-7.539429c-6.911682,-5.380829 -8.350098,-10.907013 -9.872986,-16.757416c-1.310486,-5.03569 -2.665466,-10.242889 -7.746277,-15.576767c-3.911316,-4.101028 -6.504944,-3.195389 -7.207275,-2.820465c-1.344421,0.718521 -1.767883,2.350891 -0.964355,3.715652c11.27594,19.173187 6.440247,23.143036 -0.879883,29.151428c-2.46936,2.026733 -5.268066,4.324646 -7.774719,7.538666c-0.034729,0.042511 -0.088867,0.071594 -0.14917,0.080536c-0.060425,0.008942 -0.127014,-0.004456 -0.173157,-0.035797l-2.873413,-1.838104c-6.529785,-4.139008 -12.698303,-8.048492 -15.452576,-15.180939c-1.850525,-4.789719 0.469666,-10.390457 2.713501,-15.804794c1.612488,-3.889389 3.134399,-7.562531 3.06781,-10.753479c-0.103943,-4.904541 -6.464172,-11.5495 -11.404602,-13.348114c-1.166809,-0.424072 -2.781921,-0.760239 -3.851868,0.050751c-1.489075,1.127686 -3.151306,4.228439 2.450684,12.329132c10.100159,14.608475 0.155396,25.891205 -6.42511,33.358292c-3.89447,4.417084 -6.707336,7.609497 -4.385437,9.719635c0.070129,0.063385 0.078125,0.158752 0.021301,0.230316c-0.057739,0.071533 -0.166016,0.100647 -0.262878,0.070099c-0.232605,-0.073822 -23.246826,-7.505188 -23.374725,-20.174988c-0.07547,-7.53569 4.606598,-15.005768 8.369659,-21.007477c2.534119,-4.042892 4.722839,-7.53421 4.542664,-9.727142c-0.260193,-3.219971 -1.080627,-5.143784 -2.507568,-5.881683c-1.632935,-0.844482 -3.921112,-0.03653 -6.133789,0.746155c-1.465973,0.517258 -2.851196,1.006973 -4.089813,1.062134c-1.300842,0.059586 -2.348602,-0.890717 -2.55014,-2.311386c-0.235321,-1.666672 0.793793,-3.65831 3.610291,-4.092865c0,-0.000717 3.815491,-0.71402 3.815491,-0.71402c10.017639,-2.033371 23.737915,-4.818115 60.138672,13.299591c24.985474,12.436508 40.082886,24.012848 44.873352,34.407059c0.171387,0.372681 0.330261,0.71106 0.421814,0.787842c0.00177,-0.029022 0.046143,-0.090912 0.077209,-0.223572c0.000854,-0.006744 0.013367,-0.069336 0.013367,-0.193085c0,-1.315552 -1.312378,-9.536285 -30.00061,-30.610077c-1.074341,-0.788635 -1.615112,-1.472137 -1.615112,-2.038635c0,-0.137115 0.031921,-0.267593 0.095032,-0.390564c0.559448,-1.089706 3.525024,-1.253708 5.894958,-1.062881l2.798767,0.339157c5.274292,0.690933 16.250061,2.130249 19.100281,0.251923c0.401306,-0.26387 0.61438,-0.576187 0.653503,-0.954849c0.038147,-0.380859 -0.103943,-0.703613 -0.434265,-0.986115c-2.17981,-1.864151 -11.709961,-1.342377 -18.667786,-0.961517l-6.112488,0.263107c-5.816895,0.061142 -28.630554,-1.611496 -33.97406,-10.901047c-0.799011,-1.389328 -0.849792,-2.666931 -0.15094,-3.796906c2.345886,-3.79541 12.727661,-5.235489 20.307861,-6.287216c3.304932,-0.458389 6.158691,-0.854187 7.437256,-1.328232c4.406006,-1.328232 10.918091,-3.796921 10.858582,-5.171356c-0.006287,-0.152817 -0.234436,-0.286255 -0.423523,-0.371231c-3.099792,-1.38266 -18.761169,-0.816162 -25.273193,2.593933c0,0.000717 -3.708069,2.180176 -3.708069,2.180176c-6.848572,4.226242 -16.227783,10.014786 -36.083679,7.327026l-1.804321,-0.16922c-2.352051,-0.180374 -5.01947,-0.384644 -5.483887,-1.800812c-0.456299,-1.390869 0.766296,-4.355942 16.583069,-14.006271c5.1651,-3.152893 14.004395,-12.405945 13.943176,-16.316895c-0.010742,-0.645493 -0.255737,-1.097168 -0.749451,-1.381912c-0.508789,-0.292923 -1.223511,-0.354034 -2.123901,-0.181107c-4.71582,0.904892 -14.253906,8.38916 -21.440857,18.903305c-8.356323,12.225586 -18.860535,17.988007 -25.565308,18.275772c-0.872864,0.037979 -1.374542,-0.114059 -1.533478,-0.463638c-0.496368,-1.0905 3.061584,-3.612061 7.764923,-6.795532l2.733063,-1.89624c5.69339,-4.279907 7.160309,-8.742462 9.823151,-16.844635l0.178528,-0.540405c7.134521,-21.664139 12.314758,-29.386948 42.397827,-30.98204c0.085205,-0.004456 0.16687,0.032806 0.208679,0.096893" stroke="#7f3f00" stroke-width="0"/>
       </g>
      </g>
     </g>
    </g>
    <g id="svg_9" fill="#89a02c">
     <g id="svg_10" fill="#89a02c">
      <g id="svg_11" fill="#89a02c">
       <g id="svg_12" fill="#89a02c">
        <path id="svg_13" fill="#dbcaba" d="m451.762634,89.411896c-3.829651,-2.575264 -8.171631,-5.494141 -14.224579,-6.153023c-1.113495,-0.121521 -1.213867,-0.338432 -1.214691,-0.340668l0,-0.00222c0,-0.010422 0.017761,-0.052917 0.118073,-0.11702c1.323029,-0.857185 11.520935,-1.794861 25.739349,5.045395c2.192291,1.055466 3.43811,3.094772 2.77652,4.54528c-0.558411,1.224655 -2.335236,1.665894 -4.87384,1.211243c-2.852875,-0.51281 -5.509613,-2.298721 -8.320831,-4.188988m-34.480957,11.644913c3.778076,-0.26313 13.409515,-0.260132 21.228668,5.439682c2.656647,1.937943 3.723938,3.979546 2.854645,5.462822c-0.835571,1.42366 -3.328857,2.011772 -6.355774,1.498192c-3.400848,-0.576126 -5.930542,-2.767578 -8.609375,-5.087128c-3.625458,-3.139511 -7.376953,-6.382591 -13.858856,-6.533173c0.59668,-0.226593 2.175476,-0.601509 4.740692,-0.780396m-12.277374,24.097778c-1.406525,-0.965965 -2.517365,-1.729919 -2.67099,-2.660194c-0.029236,-0.169945 0.042633,-0.301132 0.226471,-0.412163c0.983826,-0.598518 4.366791,-0.283997 7.835083,1.138863c2.759705,1.132256 9.21228,4.54229 9.508911,11.732918c0.040771,1.030823 -1.799011,3.013565 -3.756897,3.224457c-1.860168,0.199768 -3.305786,-1.264145 -4.071106,-4.123367c-1.323944,-4.950729 -4.645721,-7.233795 -7.071472,-8.900513m-41.180542,-42.492012l-0.00531,0l0.00531,0zm76.733215,-32.074802c-1.228912,3.610573 -2.390289,7.022152 -4.186615,9.928337c-3.411438,5.516491 -6.399292,6.740414 -7.919434,6.112782c-2.083069,-0.860161 -2.495056,-5.100548 0.470581,-10.45229c6.097473,-11.011372 5.391571,-19.929741 -1.988007,-25.110802c-0.06662,-0.046951 -0.158997,-0.056637 -0.237122,-0.025335c-35.535919,14.105391 -24.794556,36.247362 -20.750092,44.582811l0.840912,1.793365c1.690613,3.992218 0.855957,7.101128 -0.721039,8.412254c-0.934967,0.77594 -2.118561,0.973442 -3.424713,0.570953c-3.098816,-0.956337 -3.559692,-6.457893 -4.091583,-12.827827c-0.584229,-6.990807 -1.313232,-15.690773 -5.884338,-21.306377c-3.121033,-3.833454 -11.003235,-5.801971 -24.098389,-6.016655c-0.094177,-0.001503 -0.180267,0.047722 -0.212219,0.122238c-9.460938,21.68652 -4.058807,28.93082 13.79129,44.104313c6.552094,5.567902 6.624878,5.76693 8.498383,10.861519l0.390717,1.056946c0.604706,1.630867 0.425323,2.986671 -0.503479,3.817795c-0.827576,0.73941 -2.221558,1.018143 -3.640503,0.727432c-1.784729,-0.365227 -3.153076,-1.482498 -3.660919,-2.988884c-7.011169,-20.795113 -18.32428,-21.287773 -19.352478,-21.288544c-6.354919,-3.637405 -21.001312,1.386383 -24.023865,3.334785c-0.082581,0.054413 -0.110107,0.149811 -0.063934,0.229561c0.996246,1.729256 5.897644,16.05603 5.946472,16.199883c5.262787,12.038544 10.058502,14.340958 16.261566,16.28038c4.326904,1.353584 8.154816,1.373726 13.215118,0.067863c7.364471,-1.897743 10.502441,0.769943 12.188599,2.20253c0.692566,0.58886 1.19339,1.014473 1.663971,0.677597c0.168762,-0.120796 0.34903,-0.358597 0.255737,-0.808022c-0.330292,-1.598793 -3.946869,-4.960419 -10.659607,-7.095886c-12.20639,-3.888634 -19.677399,-12.098122 -21.519012,-16.358665c-0.37204,-0.860924 -0.389832,-1.338692 -0.282318,-1.49971c0.311646,-0.46508 0.931427,-0.717796 1.843292,-0.749825c4.709564,-0.166229 16.286469,5.792999 24.438568,15.877121c2.611389,3.228233 5.123322,4.691383 7.467468,4.34774c3.835876,-0.562767 5.669403,-5.648422 6.140076,-7.193588c1.565399,-5.139282 -0.43866,-14.560043 -10.756409,-25.588509c-7.062592,-7.553619 -9.055115,-16.099251 -7.917694,-20.842804c0.342743,-1.428867 0.954498,-2.413528 1.722565,-2.772026c0.337433,-0.157272 0.781372,-0.115555 1.318604,0.125973c4.472504,2.008007 13.059692,16.203564 13.546265,21.25124c1.384277,14.402794 6.772247,16.652321 8.390961,16.998901c1.522766,0.325729 3.007385,-0.164742 3.877594,-1.277573c10.638306,-13.652946 7.410675,-23.843643 5.275177,-30.586235c-0.567383,-1.79187 -1.057495,-3.33852 -1.248444,-4.718933c-0.808899,-5.867569 5.136719,-14.053211 7.816437,-15.567841c0.401367,-0.226566 0.72287,-0.305584 0.903992,-0.222099c1.315857,0.605965 1.273254,6.3088 0.924347,9.994659c-0.018646,1.125515 -0.686432,3.299759 -1.457977,5.816879c-1.79187,5.842224 -4.247009,13.843773 -1.378082,17.198662c0.811554,0.94886 2.009369,1.478813 3.559692,1.574226c10.544159,0.649963 18.961761,-14.300667 21.290802,-18.898857l0.884338,-1.777721c2.413422,-4.882931 6.904572,-13.971951 10.120667,-14.747898c0.427094,-0.102856 0.806274,-0.04995 1.161438,0.161777c2.956787,1.766525 -3.688507,10.396423 -6.527252,14.081512l-1.344238,1.79409c-0.958099,1.428867 -2.020905,3.879665 -1.029175,4.77412c0.513214,0.462128 1.444672,0.429329 2.77121,-0.095406c29.964203,-11.859581 41.967224,-7.60128 43.236969,-7.07655c0.554962,0.228825 0.742279,0.386097 0.816864,0.474045c-0.213959,0.01046 -0.651733,-0.026844 -1.128571,-0.067844c-14.079865,-1.242519 -31.742615,3.943047 -52.497101,15.410576c-30.908905,17.078636 -42.262878,43.320137 -46.280792,57.44191c-0.573578,2.002808 0.713959,3.188705 1.294617,3.605392c0.916351,0.658936 2.075104,0.913773 2.881348,0.634247c0.531006,-0.183319 0.850647,-0.582077 0.903046,-1.120987c0.047058,-0.472565 0.451965,-1.557083 1.409149,-1.895493c0.75473,-0.26683 1.700409,-0.012665 2.804077,0.755096c1.329254,0.921982 1.090363,2.848801 0.789398,5.289108c-0.397827,3.220764 -0.892395,7.228592 2.076813,10.81015c4.086304,4.932831 9.499115,7.8815 16.089325,8.76326c8.881195,1.188126 17.100739,-1.818634 19.689941,-3.460693c0.056763,-0.035812 0.092316,-0.089462 0.092316,-0.148346c-0.000854,-0.058914 -0.031158,-0.111801 -0.087921,-0.14682l-0.626923,-0.385391c-2.343231,-1.397552 -6.705627,-4.000381 -6.774017,-15.746704c-0.071899,-12.728661 -12.462067,-21.362297 -18.80719,-22.229897c-3.169067,-0.43383 -5.170441,-1.253014 -6.118744,-2.502991c-0.730743,-0.963745 -0.833801,-2.182434 -0.316162,-3.726074c0.349884,-1.045044 1.057526,-1.747932 2.101807,-2.088516c1.860168,-0.60598 4.768158,-0.029091 7.783569,1.543625c1.969452,1.026398 4.324219,3.987015 7.051056,7.415672c4.414764,5.550072 9.907501,12.457413 17.285339,16.071686c12.030579,5.89592 27.470795,-6.64045 27.625336,-6.767914c0.071838,-0.058884 0.087891,-0.151337 0.038177,-0.22438c-0.049774,-0.073799 -0.151886,-0.110283 -0.249542,-0.08873c-2.818298,0.616463 -4.806366,-2.846519 -7.558899,-7.638535c-4.651001,-8.09922 -11.679871,-20.338173 -29.17215,-20.195053c-9.674896,0.07975 -11.999451,-2.541695 -12.524231,-4.11145c-0.412903,-1.239578 0.696136,-2.282333 1.698639,-2.938263c3.689331,-2.414993 11.810303,-3.574043 16.360962,-1.390846c3.018921,1.44825 6.464111,4.639183 10.11264,8.017921c5.24942,4.862053 10.677429,9.890343 15.904602,10.866776c7.76236,1.451271 13.715912,-1.006996 20.017578,-3.607605l2.77121,-1.129242c0.053223,-0.022339 0.095917,-0.062607 0.115417,-0.111794c0.017792,-0.048431 0.012482,-0.101364 -0.016052,-0.146057c-1.90448,-2.926353 -3.16095,-5.730446 -4.375702,-8.442101c-3.998291,-8.928024 -7.156647,-15.979973 -30.162079,-17.215813c-1.658661,-0.089447 -3.079376,-1.250717 -3.168152,-2.589409c-0.111877,-1.685272 1.859314,-2.994911 5.272522,-3.501762c6.86908,-1.018906 13.239075,0.694702 19.398651,2.350166c7.288147,1.960335 14.172211,3.811836 21.799622,1.531731c7.214447,-2.156357 11.157654,-6.469086 14.036407,-9.616737c1.035339,-1.132256 1.929443,-2.110191 2.818237,-2.84214c0.06311,-0.051411 0.083496,-0.128937 0.053345,-0.197491c-1.919678,-4.405884 -10.570862,-17.099571 -21.447174,-19.01963c-9.81781,-1.731503 -18.064911,3.948223 -24.690674,8.512878c-4.182098,2.880135 -7.793365,5.367409 -10.487335,4.941044c-0.404053,-0.064102 -1.366516,-0.290653 -1.569,-1.013691c-0.276093,-0.990585 0.762756,-3.035168 7.278412,-7.154812c15.193359,-9.605602 8.374115,-18.992014 8.075684,-19.386311c-0.038147,-0.051458 -0.103851,-0.083487 -0.175812,-0.086485c-21.964661,-0.952589 -25.818329,10.367353 -29.546753,21.315336" stroke="#7f3f00" stroke-width="0"/>
       </g>
      </g>
     </g>
    </g>
   </g>
   <path id="svg_22" fill="#003f7f" d="m464.767487,375.922577c3.409973,-5.389252 11.534912,-4.258759 14.870697,-9.72879c-2.32373,-5.952942 -0.607971,-14.636322 6.187927,-16.715332c9.220764,-3.290649 18.791443,2.057465 25.391632,8.246368c4.554108,3.593781 9.114899,7.366333 14.542389,9.583649c4.175476,-4.964417 -2.116821,-10.606659 -6.711182,-12.211975c-9.997833,-5.215302 -21.922729,-8.597992 -28.626007,-18.335419c-2.947693,-4.971985 1.187225,-13.786346 7.56839,-11.830078c6.223511,0.219299 4.005585,-7.707153 2.146637,-10.794098c0.143646,-6.589355 8.949646,-8.77182 11.920319,-2.95929c5.584412,3.612122 13.224426,-1.535553 18.317749,3.424408c13.837769,11.471375 19.082092,31.406586 14.788391,48.54895c-0.47699,2.843811 -1.836548,7.085266 -3.694153,2.454529c-2.004272,-4.567444 -0.223755,-10.027893 -3.018188,-14.359863c-1.777344,-4.835358 -3.852173,-11.347168 -9.722717,-12.293152c-5.264099,-0.476379 -6.537598,6.527405 -4.78833,10.38974c2.105042,5.063873 5.396851,9.563324 7.690857,14.561371c0.843445,3.385437 5.769226,7.83963 2.358826,10.713562c-4.107544,2.494415 -8.414307,-1.12558 -11.670166,-3.453033c-3.579834,-3.907257 -11.980591,-3.403015 -13.069305,2.476105c1.75824,4.709869 0.429504,9.9664 -5.105743,11.352783c-7.118561,2.452911 -1.178406,11.875427 4.862701,9.786743c7.599457,-1.798157 14.970428,-5.350861 22.931793,-5.362c3.399353,5.412262 -7.384827,3.370453 -10.170227,5.861938c-12.099396,5.251343 -21.696869,16.281464 -35.389374,17.639191c-6.506866,0.696381 -10.452271,-5.579559 -13.356537,-10.394653c-3.5466,-4.705475 -10.323608,-7.040344 -11.595184,-13.323181c-1.605438,-4.518341 -0.802887,-10.359161 3.338806,-13.278473zm102.356842,-7.468781c1.96582,-14.092743 7.855835,-28.473206 19.478821,-37.319733c5.094727,-3.667328 11.697144,-5.802673 17.950439,-4.32016c2.940857,1.369324 2.645386,5.831238 5.872253,6.801147c3.759521,0.055023 7.472473,-2.524597 11.252136,-0.996826c7.230835,2.787933 11.316711,12.315796 7.300598,19.181824c-2.318665,2.110199 -6.409119,5.341339 -3.850525,8.833649c2.58606,3.058197 3.200256,8.116882 0.181396,11.112518c-5.088135,6.721893 -14.591125,8.718231 -22.459106,6.507721c-8.265503,-1.533783 -16.848145,-0.752441 -24.825134,1.816284c-2.640259,0.444641 -6.049438,2.426392 -8.114319,2.234619c-0.339844,-3.710846 4.093445,-4.397827 6.59845,-5.800964c8.286804,-4.824677 17.838684,-8.072815 24.421265,-15.3414c2.152405,-2.972076 0.919434,-8.463226 -3.141052,-8.918091c-5.60675,-0.374268 -10.268066,3.286194 -14.993347,5.713623c-4.559875,2.943329 -8.632202,6.749115 -11.478699,11.390839c1.764282,4.540649 -7.747803,2.486969 -4.193176,-0.89505zm10.730774,61.632111c-5.258606,-10.984985 -13.900818,-19.951172 -23.302917,-27.532867c-2.242249,5.900208 3.613831,10.267334 5.738098,15.163574c3.623901,4.47998 -4.037903,11.970367 -6.885193,5.623108c-6.532776,2.589539 0.878845,11.934265 -5.335876,15.576721c-5.178467,4.746063 -12.865967,-1.424164 -11.8125,-7.605591c-0.701294,-3.77655 6.048584,-9.545135 1.822998,-11.596466c-3.65155,3.325623 -11.387207,4.99231 -12.578857,-1.552612c-0.903442,-7.823944 6.443542,-13.802765 13.26709,-15.900116c5.430237,-5.024139 -5.322266,-7.024353 -8.555237,-4.257782c-14.268005,3.28302 -26.559509,13.968109 -32.062042,27.44928c-2.209412,7.605072 1.861023,16.195099 8.725464,19.932343c4.741638,4.594452 14.226715,1.2099 16.873749,8.456665c1.576233,6.217896 5.078003,11.651245 10.326721,15.399384c7.870972,5.578094 20.174133,5.558502 26.721558,-2.076752c3.022766,-6.98703 11.879883,-7.507996 16.539307,-12.76416c4.687622,-7.232971 3.443665,-16.67572 0.517639,-24.314728zm53.571289,-4.403595c-2.181946,-5.570496 -7.529602,-9.081818 -12.855652,-11.293854c4.075378,-3.038513 8.33313,-8.483826 5.815735,-13.748962c-6.041748,-11.410095 -19.486267,-16.967499 -31.973328,-16.71402c-9.885071,-0.000885 -19.804016,2.035431 -28.91571,5.811279c-2.728149,3.405975 4.604065,0.034607 6.242249,0.258453c8.070679,-1.123535 16.553528,0.883087 23.287781,5.378632c4.277405,4.199768 -2.044312,4.990112 -4.843506,6.153625c-2.287598,4.277893 4.983215,5.453369 6.47876,8.971466c3.188049,2.759003 2.640747,9.160339 -2.308655,9.216583c-5.483459,0.144135 -8.241211,-5.479645 -11.975647,-8.532623c-5.802979,-5.862579 -12.826721,-11.143768 -21.151794,-12.578857c-1.378601,3.874512 5.235291,5.194183 6.691956,8.450775c8.373291,8.536896 14.087402,19.226135 18.460938,30.244812c2.795776,6.47464 7.670044,13.15036 15.214844,14.088806c4.722656,0.860535 10.848633,-1.425842 11.568542,-6.677612c2.627136,-4.183502 8.669678,1.101318 12.587463,-1.750031c5.313171,-1.29718 8.651855,-6.484711 8.58252,-11.772614c0.067505,-1.870178 -0.216187,-3.761536 -0.906494,-5.505859z" stroke="#7f3f00" stroke-width="0"/>
   <path id="svg_23" fill="#ff7f00" d="m534.648682,295.464264c2.665771,-3.564056 -1.82843,-13.66568 5.643311,-11.672607c3.416565,-2.047058 6.838318,-9.430695 10.662537,-3.25705c2.802246,4.627869 8.268982,-1.250519 10.614746,4.333221c3.149841,3.827271 -1.588257,6.310303 -4.556213,4.248566c-6.543518,1.243622 -5.303406,10.17868 -2.565674,14.648102c1.368835,4.507111 5.662476,2.341583 5.22998,-1.643921c1.626282,-6.136322 9.73999,-0.342896 4.761414,3.483521c-4.809998,1.39975 -9.171631,6.49231 -5.526733,11.571472c2.176086,3.543854 5.023193,0.547485 5.171692,-2.566772c1.845093,-4.541473 9.74176,-1.441986 5.938538,2.730774c-4.125305,2.053986 -11.405701,4.399475 -8.747131,10.829773c2.254639,4.378632 5.947083,-0.274109 7.192078,-2.798798c4.947754,-3.085754 7.562134,6.858307 1.3255,5.867554c-6.329224,-0.725372 -8.209412,5.852448 -6.819275,11.251617c1.132019,9.869141 0.073425,19.923615 -2.024475,29.574615c-2.28125,9.473907 -6.192383,18.877625 -12.726685,25.875702c-5.101257,3.386383 -12.453369,-3.04126 -10.066284,-9.044464c1.596619,-7.094757 6.80896,-12.380737 9.111755,-19.169403c5.75708,-12.586487 9.867859,-26.346375 9.825745,-40.461273c-1.125,-6.609283 -10.532959,0.347076 -11.687561,-5.945923c0.818481,-5.882416 8.170471,-2.473663 9.633362,0.448547c4.46283,-2.270905 0.652222,-11.287994 -3.971802,-10.829437c-3.579407,0.842987 -10.404663,-0.163513 -6.663818,-5.453369c4.056091,-4.095947 5.398438,5.667816 9.163025,3.032715c2.356262,-4.250122 -2.292664,-9.053009 -4.779541,-12.159424c-4.32489,-4.539093 -8.512329,3.448547 -13.024048,1.170227c-1.145386,-0.966278 -1.37915,-2.614349 -1.114441,-4.063965z" stroke="#7f3f00" stroke-width="0"/>
   <path id="svg_24" fill="#003f7f" d="m286.267487,374.266693c3.409973,-5.389252 11.534912,-4.258759 14.870697,-9.72879c-2.32373,-5.952942 -0.607971,-14.636322 6.187927,-16.715332c9.220764,-3.290649 18.791443,2.057465 25.391632,8.246368c4.554108,3.593781 9.114899,7.366333 14.542389,9.583649c4.175476,-4.964417 -2.116821,-10.606659 -6.711182,-12.211975c-9.997833,-5.215302 -21.922729,-8.597992 -28.626007,-18.335419c-2.947693,-4.971985 1.187225,-13.786346 7.56839,-11.830078c6.223511,0.219299 4.005585,-7.707153 2.146637,-10.794098c0.143646,-6.589355 8.949646,-8.77182 11.920319,-2.95929c5.584412,3.612122 13.224426,-1.535553 18.317749,3.424408c13.837769,11.471375 19.082092,31.406586 14.788391,48.54895c-0.47699,2.843811 -1.836548,7.085266 -3.694153,2.454529c-2.004272,-4.567444 -0.223755,-10.027893 -3.018188,-14.359863c-1.777344,-4.835358 -3.852173,-11.347168 -9.722717,-12.293152c-5.264099,-0.476379 -6.537598,6.527405 -4.78833,10.38974c2.105042,5.063873 5.396851,9.563324 7.690857,14.561371c0.843445,3.385437 5.769226,7.83963 2.358826,10.713562c-4.107544,2.494415 -8.414307,-1.12558 -11.670166,-3.453033c-3.579834,-3.907257 -11.980591,-3.403015 -13.069305,2.476105c1.75824,4.709869 0.429504,9.9664 -5.105743,11.352783c-7.118561,2.452911 -1.178406,11.875427 4.862701,9.786743c7.599457,-1.798157 14.970428,-5.350861 22.931793,-5.362c3.399353,5.412262 -7.384827,3.370453 -10.170227,5.861938c-12.099396,5.251343 -21.696869,16.281464 -35.389374,17.639191c-6.506866,0.696381 -10.452271,-5.579559 -13.356537,-10.394653c-3.5466,-4.705475 -10.323608,-7.040344 -11.595184,-13.323181c-1.605438,-4.518341 -0.802887,-10.359161 3.338806,-13.278473zm102.356842,-7.468781c1.96582,-14.092743 7.855835,-28.473206 19.478821,-37.319733c5.094727,-3.667328 11.697144,-5.802673 17.950439,-4.32016c2.940857,1.369324 2.645386,5.831238 5.872253,6.801147c3.759521,0.055023 7.472473,-2.524597 11.252136,-0.996826c7.230835,2.787933 11.316711,12.315796 7.300598,19.181824c-2.318665,2.110199 -6.409119,5.341339 -3.850525,8.833649c2.58606,3.058197 3.200256,8.116882 0.181396,11.112518c-5.088135,6.721893 -14.591125,8.718231 -22.459106,6.507721c-8.265503,-1.533783 -16.848145,-0.752441 -24.825134,1.816284c-2.640259,0.444641 -6.049438,2.426392 -8.114319,2.234619c-0.339844,-3.710846 4.093445,-4.397827 6.59845,-5.800964c8.286804,-4.824677 17.838684,-8.072815 24.421265,-15.3414c2.152405,-2.972076 0.919434,-8.463226 -3.141052,-8.918091c-5.60675,-0.374268 -10.268066,3.286194 -14.993347,5.713623c-4.559875,2.943329 -8.632202,6.749115 -11.478699,11.390839c1.764282,4.540649 -7.747803,2.486969 -4.193176,-0.89505zm10.730774,61.632111c-5.258606,-10.984985 -13.900818,-19.951172 -23.302917,-27.532867c-2.242249,5.900208 3.613831,10.267334 5.738098,15.163574c3.623901,4.47998 -4.037903,11.970367 -6.885193,5.623108c-6.532776,2.589539 0.878845,11.934265 -5.335876,15.576721c-5.178467,4.746063 -12.865967,-1.424164 -11.8125,-7.605591c-0.701294,-3.77655 6.048584,-9.545135 1.822998,-11.596466c-3.65155,3.325623 -11.387207,4.99231 -12.578857,-1.552612c-0.903442,-7.823944 6.443542,-13.802765 13.26709,-15.900116c5.430237,-5.024139 -5.322266,-7.024353 -8.555237,-4.257782c-14.268005,3.28302 -26.559509,13.968109 -32.062042,27.44928c-2.209412,7.605072 1.861023,16.195099 8.725464,19.932343c4.741638,4.594452 14.226715,1.2099 16.873749,8.456665c1.576233,6.217896 5.078003,11.651245 10.326721,15.399384c7.870972,5.578094 20.174133,5.558502 26.721558,-2.076752c3.022766,-6.98703 11.879883,-7.507996 16.539307,-12.76416c4.687622,-7.232971 3.443665,-16.67572 0.517639,-24.314728zm53.571289,-4.403595c-2.181946,-5.570496 -7.529602,-9.081818 -12.855652,-11.293854c4.075378,-3.038513 8.33313,-8.483826 5.815735,-13.748962c-6.041748,-11.410095 -19.486267,-16.967499 -31.973328,-16.71402c-9.885071,-0.000885 -19.804016,2.035431 -28.91571,5.811279c-2.728149,3.405975 4.604065,0.034607 6.242249,0.258453c8.070679,-1.123535 16.553528,0.883087 23.287781,5.378632c4.277405,4.199768 -2.044312,4.990112 -4.843506,6.153625c-2.287598,4.277893 4.983215,5.453369 6.47876,8.971466c3.188049,2.759003 2.640747,9.160339 -2.308655,9.216583c-5.483459,0.144135 -8.241211,-5.479645 -11.975647,-8.532623c-5.802979,-5.862579 -12.826721,-11.143768 -21.151794,-12.578857c-1.378601,3.874512 5.235291,5.194183 6.691956,8.450775c8.373291,8.536896 14.087402,19.226135 18.460938,30.244812c2.795776,6.47464 7.670044,13.15036 15.214844,14.088806c4.722656,0.860535 10.848633,-1.425842 11.568542,-6.677612c2.627136,-4.183502 8.669678,1.101318 12.587463,-1.750031c5.313171,-1.29718 8.651855,-6.484711 8.58252,-11.772614c0.067505,-1.870178 -0.216187,-3.761536 -0.906494,-5.505859z" stroke="#7f3f00" stroke-width="0"/>
   <path id="svg_25" fill="#00bfff" d="m356.148682,293.80838c2.665771,-3.564056 -1.82843,-13.66568 5.643311,-11.672607c3.416565,-2.047058 6.838318,-9.430695 10.662537,-3.25705c2.802246,4.627869 8.268982,-1.250519 10.614746,4.333221c3.149841,3.827271 -1.588257,6.310303 -4.556213,4.248566c-6.543518,1.243622 -5.303406,10.17868 -2.565674,14.648102c1.368835,4.507111 5.662476,2.341583 5.22998,-1.643921c1.626282,-6.136322 9.73999,-0.342896 4.761414,3.483521c-4.809998,1.39975 -9.171631,6.49231 -5.526733,11.571472c2.176086,3.543854 5.023193,0.547485 5.171692,-2.566772c1.845093,-4.541473 9.74176,-1.441986 5.938538,2.730774c-4.125305,2.053986 -11.405701,4.399475 -8.747131,10.829773c2.254639,4.378632 5.947083,-0.274109 7.192078,-2.798798c4.947754,-3.085754 7.562134,6.858307 1.3255,5.867554c-6.329224,-0.725372 -8.209412,5.852448 -6.819275,11.251617c1.132019,9.869141 0.073425,19.923615 -2.024475,29.574615c-2.28125,9.473907 -6.192383,18.877625 -12.726685,25.875702c-5.101257,3.386383 -12.453369,-3.04126 -10.066284,-9.044464c1.596619,-7.094757 6.80896,-12.380737 9.111755,-19.169403c5.75708,-12.586487 9.867859,-26.346375 9.825745,-40.461273c-1.125,-6.609283 -10.532959,0.347076 -11.687561,-5.945923c0.818481,-5.882416 8.170471,-2.473663 9.633362,0.448547c4.46283,-2.270905 0.652222,-11.287994 -3.971802,-10.829437c-3.579407,0.842987 -10.404663,-0.163513 -6.663818,-5.453369c4.056091,-4.095947 5.398438,5.667816 9.163025,3.032715c2.356262,-4.250122 -2.292664,-9.053009 -4.779541,-12.159424c-4.32489,-4.539093 -8.512329,3.448547 -13.024048,1.170227c-1.145386,-0.966278 -1.37915,-2.614349 -1.114441,-4.063965z" stroke="#7f3f00" stroke-width="0"/>
  </g>
 </g>
</svg>