<?xml version="1.0"?><svg width="640" height="480.00000000000006" xmlns="http://www.w3.org/2000/svg" xmlns:xlink="http://www.w3.org/1999/xlink">
 <title>blue tropical flower</title>
 <metadata id="metadata8159">image/svg+xml</metadata>
 <g>
  <g id="g8074">
   <path stroke-width="0" stroke="#ff7f00" id="path3416-4" d="m517.957764,289.781158c-35.313477,7.049072 -72.663879,21.476807 -108.904449,9.876678c-8.796265,1.820221 -38.629059,-6.045959 -17.950012,-11.682739c13.385284,-4.468903 45.422791,-2.035309 47.791595,-4.621765c-15.092194,-3.486237 -41.441895,1.091919 -49.88678,-2.029419c39.585358,-19.88681 93.36441,-16.129456 128.949646,8.457245zm10.143555,-55.771576c-21.010742,14.81395 -45.096527,33.890564 -74.795563,29.27594c-12.933899,-2.683777 -38.988403,5.83783 -44.274139,-2.328552c18.424866,-9.970459 40.705322,-11.684097 61.007782,-17.559845c-17.365631,-5.184525 -34.530334,4.203506 -51.819336,4.151215c11.554901,-10.655426 39.232941,-17.115936 59.579681,-18.180573c16.913757,-0.961349 34.022369,0.639069 50.301025,4.641754m8.759949,-43.690262c-20.926025,12.875534 -38.951019,34.31633 -67.437073,33.741272c-10.863739,-3.033325 -34.44101,11.168152 -37.082977,0.850037c17.020996,-9.97934 36.83551,-15.784973 56.689056,-20.248001c-20.582031,1.384232 -40.809387,6.148697 -59.394958,13.753342c27.397919,-23.583923 69.010071,-33.865021 107.225708,-28.096649m-111.566681,-99.529678c19.853546,59.083527 5.188324,124.845123 -33.913116,175.980042c-24.596619,27.589935 -59.443787,47.189972 -95.903748,61.885742c1.495605,-15.928406 23.42865,-17.097076 36.517639,-23.387848c13.926758,-9.545807 27.825592,-19.674347 39.688995,-31.303925c38.635956,-39.02594 57.727753,-90.485703 58.794495,-141.026108c-0.060455,-14.470589 -1.972168,-28.948425 -5.91507,-43.032394l0.424072,0.149803l0.306732,0.734688zm37.545258,255.009186c-36.462616,-2.655548 -75.665955,0.259155 -108.609589,-15.804413c-19.169678,5.787537 -19.532349,-22.521393 -0.092499,-13.578308c21.957825,-1.029327 43.782349,3.396271 64.111145,10.159943c-21.838562,-12.661377 -49.338654,-15.137939 -75.124329,-13.989349c37.357056,-13.927002 88.153595,-7.235596 111.348145,23.214142c2.927307,3.247467 5.685516,6.602173 8.367126,9.997986zm-151.014282,-199.466095c38.240204,0.731857 79.218994,21.966431 86.257904,55.627945c8.301483,6.815536 -5.220123,26.917587 -7.803711,9.300995c-8.58786,-15.432541 -20.766632,-30.073532 -38.062408,-39.255783c18.636749,20.218353 37.465454,44.050034 34.58551,70.957199c-6.260803,-25.264267 -31.595459,-41.563873 -50.786957,-59.770508c-10.356079,-11.055191 -18.805023,-23.473419 -24.190765,-36.859848m1.948334,39.023026c33.916992,13.049118 62.542084,43.86998 55.902863,76.791489c-14.558289,-6.73082 -6.102386,-36.252655 -23.471802,-34.818527c6.396393,13.744095 10.369934,28.514084 8.005798,43.414169c-0.731689,7.162292 -7.511566,25.763397 -7.555939,9.427551c-6.507416,-32.727341 -35.025421,-60.568405 -32.881378,-94.814743m-30.426086,26.523819c27.389465,14.11879 54.357544,37.802689 51.52951,67.042236c5.20462,10.054291 -19.026581,27.477692 -13.08667,8.237579c2.391937,-14.339142 -7.295166,-38.529007 -13.541809,-43.946457c9.820648,19.104111 8.44458,40.758621 3.60968,60.742172c0.890717,-31.098267 -35.739227,-54.333893 -29.128479,-86.121124l0.246002,-2.982071l0.374969,-2.972397m267.466949,-54.039291c-26.392456,12.862305 -51.867889,29.419174 -82.860626,33.033081c-6.790131,5.964203 -32.182648,5.50351 -12.978424,-3.132614c9.306976,-7.120758 38.961243,-15.415039 37.433075,-19.167725c-16.611938,3.395737 -31.784821,10.3535 -48.079651,14.571472c24.586212,-25.333527 69.863129,-42.634964 106.485626,-25.304214zm-19.225342,-45.784195c-22.589172,25.320526 -55.519958,41.576309 -86.974091,57.787033c11.640778,-17.658371 31.661957,-29.460785 50.231049,-41.437683c-15.927368,-0.280273 -31.863739,27.489609 -42.479675,17.590805c13.489807,-25.029404 48.928436,-34.832832 79.222717,-33.940155zm-6.037598,-47.933334c-2.574097,23.421608 -22.675354,43.356209 -47.582764,52.576653c-11.135162,5.174179 -25.347107,21.521797 -31.47522,22.953285c7.489716,-17.67009 23.397736,-31.238487 37.213654,-45.434418c-17.148804,6.396698 -24.278351,23.476448 -41.569397,29.694901c4.420502,-34.116127 43.692474,-60.493233 83.413727,-59.790421zm-44.938477,-34.232723c0.374969,20.372799 -7.360504,41.791203 -25.383789,55.889408c-0.26712,10.099625 -19.145569,14.940178 -9.681335,1.070084c2.925598,-5.574211 10.590485,-19.507462 5.750275,-20.11042c0.466003,7.420876 -17.058624,23.977654 -12.928375,7.056389c5.470734,-19.022591 21.907196,-35.033405 42.243225,-43.90546zm-81.207916,-24.050781c22.1651,6.675879 41.999268,26.256065 36.56958,47.165992c5.991119,7.847748 -14.168884,16.349606 -7.717834,4.084747c2.850433,-7.405262 -14.562622,-32.762794 -6.744476,-13.000164c5.364075,5.994938 2.245972,32.573517 -6.632874,17.534748c-9.166748,-17.46426 -18.718689,-36.208963 -15.474396,-55.785324zm-73.533997,109.826633c42.745239,-2.118263 83.733093,27.978554 87.521912,64.127663c-8.641479,-11.245956 -22.625641,-32.502258 -31.853943,-34.881058c14.89798,15.170151 24.35553,33.704254 29.934387,52.751144c-16.387085,-24.082031 -42.819122,-41.262604 -67.11795,-59.160049c-6.975006,-7.114761 -12.674438,-15.031151 -18.484406,-22.8377zm97.430176,25.628685c-13.83902,-14.174461 -26.823792,-30.335388 -47.185516,-38.238754c20.275024,14.850006 36.16568,34.423401 43.290314,56.447647c-17.135803,-21.079437 -42.433746,-35.659363 -64.597412,-52.48201c-15.801361,-8.503403 -11.427277,-33.126045 9.975067,-22.635231c29.196594,9.205902 48.72229,32.722733 58.517548,56.908348zm-74.76181,-96.253288c38.269012,0.727638 72.572815,29.754852 73.105896,62.281532c-8.134979,-6.262009 -19.226654,-27.772774 -25.434235,-25.230713c4.914642,6.550186 21.822662,24.315552 14.861633,26.548866c-19.299469,-15.867722 -48.309479,-26.313164 -55.484406,-50.282658c-2.366638,-4.430645 -5.381714,-8.635269 -7.048889,-13.317028z" fill="#78d3d3"/>
   <g id="g4206" fill="#cdde87">
    <g id="g4208" fill="#cdde87">
     <g id="g4214" fill="#cdde87">
      <g id="g4216" fill="#cdde87">
       <path stroke-width="0" stroke="#ff7f00" id="path4224" d="m452.524414,408.019501c3.392517,-0.208405 5.967926,-3.145813 7.064697,-8.060455c0.520996,-2.328613 0.753418,-4.630859 0.753418,-6.884216c0,-17.155212 -13.513702,-31.467163 -16.656128,-33.446838c0.004578,0.007507 0.022278,0.043976 0.022278,0.043976c2.642059,4.158875 3.576019,8.001373 3.576019,11.649353c0,4.495331 -1.419403,8.691895 -2.812317,12.813141c-1.256622,3.714508 -2.465942,7.289612 -2.465942,10.833466c0,1.712219 0.282806,3.416992 0.978424,5.12796c2.014496,4.964844 5.846558,8.149597 9.539551,7.923615m59.137482,14.876892c2.030731,-0.293762 3.354034,-2.60733 3.293304,-5.755707l0,-0.001221c-0.455872,-23.649048 -9.18573,-36.042938 -12.313293,-37.881958c-0.380341,-0.22348 -0.526917,-0.194611 -0.528442,-0.194611c-0.073975,0.060333 -0.207153,0.621399 0.595093,2.237061c4.46991,9.016998 3.014984,15.643829 1.73172,21.49115c-0.954712,4.345886 -1.856171,8.452057 -0.114044,12.883392c2.266083,5.785736 5.36853,7.505585 7.335663,7.221893m-4.062958,-166.496307c11.995056,18.655426 15.727966,31.250061 11.413269,38.50589c-6.330566,10.625031 -22.16507,18.099213 -34.886841,24.104675c-11.582092,5.468231 -21.5849,10.189484 -20.462921,15.276062c0.512115,2.318665 2.267517,3.964355 4.943726,4.634705c4.813324,1.205109 11.145416,-0.898834 16.127594,-5.357758l2.609375,-2.518158c11.990692,-11.886658 43.840271,-43.461853 104.256653,-3.710724c0.108032,0.070251 0.161255,0.185791 0.139038,0.300049c-2.855103,14.288055 -19.120361,21.895294 -45.802795,21.422028c-12.479126,-0.217133 -20.113647,3.245056 -20.285339,6.717255c-0.137634,2.785553 4.808899,6.313049 19.204773,7.086334c7.226074,0.387939 14.804382,-0.497101 22.826721,-1.434814c24.290527,-2.837067 49.408569,-5.770721 68.382446,25.92746c0.056274,0.091614 0.053284,0.202118 -0.005981,0.293732c-0.113892,0.1745 -11.768494,17.333527 -44.432251,2.960114c-14.879822,-6.549072 -19.269897,-5.920105 -20.562073,-4.963593c-1.113037,0.824738 -0.633545,2.332428 -0.375977,2.942474c1.756958,4.15387 9.016968,6.949493 17.424255,10.18573c13.282776,5.114166 29.815857,11.478638 35.817871,26.597809c6.459351,16.277832 -5.594971,34.462402 -12.444946,40.728973c-0.102234,0.094208 -0.26062,0.125519 -0.401306,0.080292c-2.239441,-0.716644 -4.943542,-1.256561 -8.075562,-1.881622c-8.694397,-1.734924 -20.602051,-4.111206 -31.515076,-12.697601c-11.521423,-9.062195 -13.91925,-18.369202 -16.457764,-28.222229c-2.18457,-8.480957 -4.443298,-17.250671 -12.91272,-26.233795c-6.519958,-6.90683 -10.843445,-5.381561 -12.01416,-4.750153c-2.241028,1.210114 -2.947021,3.95929 -1.607605,6.257782c18.796448,32.290741 10.735596,38.976624 -1.466736,49.095734c-4.116272,3.413361 -8.781616,7.283417 -12.960022,12.696381c-0.057861,0.071594 -0.148132,0.120514 -0.248718,0.13559c-0.100708,0.015076 -0.21167,-0.007477 -0.288635,-0.060272l-4.789734,-3.095642c-10.884949,-6.970795 -21.167511,-13.554993 -25.75882,-25.5672c-3.084747,-8.066681 0.782928,-17.499237 4.523224,-26.617859c2.687958,-6.550323 5.224945,-12.736542 5.113953,-18.110596c-0.173248,-8.260071 -10.775391,-19.451263 -19.010925,-22.480408c-1.945007,-0.714233 -4.637299,-1.280365 -6.420868,0.085449c-2.482239,1.899231 -5.253082,7.121429 4.085175,20.764282c16.836578,24.603088 0.259033,43.605011 -10.710358,56.180847c-6.491852,7.439026 -11.180908,12.815582 -7.310333,16.369415c0.116943,0.10672 0.13028,0.267365 0.035553,0.387878c-0.096283,0.120483 -0.276794,0.169525 -0.438202,0.118042c-0.387726,-0.124298 -38.751434,-12.639923 -38.964661,-33.977936c-0.125763,-12.691315 7.679016,-25.272186 13.951843,-35.380005c4.224304,-6.808899 7.872772,-12.688873 7.572388,-16.38208c-0.433685,-5.422974 -1.801361,-8.662994 -4.179932,-9.905731c-2.722015,-1.422272 -6.536316,-0.061523 -10.224731,1.256622c-2.443756,0.871155 -4.752869,1.695892 -6.817566,1.788818c-2.168427,0.100372 -3.914978,-1.500122 -4.250977,-3.892761c-0.392273,-2.806946 1.323212,-6.161194 6.018219,-6.893036c0,-0.001221 6.360229,-1.202515 6.360229,-1.202515c16.698914,-3.424561 39.569946,-8.114502 100.248322,22.398682c41.649658,20.945099 66.816406,40.441559 74.801819,57.947052c0.285706,0.627686 0.550598,1.197571 0.703125,1.326904c0.00293,-0.04895 0.076965,-0.153137 0.128723,-0.376556c0.001465,-0.011353 0.022217,-0.116791 0.022217,-0.325195c0,-2.215607 -2.187622,-16.060638 -50.009521,-51.552368c-1.790955,-1.328186 -2.692383,-2.479309 -2.692383,-3.43338c0,-0.230927 0.053284,-0.450653 0.158447,-0.657776c0.932495,-1.835236 5.876099,-2.11145 9.826599,-1.790039l4.665405,0.571136c8.792053,1.163666 27.088074,3.587738 31.839294,0.424316c0.669006,-0.444397 1.02417,-0.970398 1.089355,-1.608093c0.063599,-0.641449 -0.173157,-1.184998 -0.723877,-1.660797c-3.633606,-3.139526 -19.52002,-2.260803 -31.118347,-1.619354l-10.18927,0.443115c-9.696472,0.102966 -47.725647,-2.71402 -56.633148,-18.359131c-1.332031,-2.339874 -1.416443,-4.491547 -0.251587,-6.394623c3.910492,-6.39209 21.216339,-8.817413 33.852203,-10.588684c5.509216,-0.772003 10.266357,-1.438599 12.397644,-2.236969c7.344543,-2.236969 18.19989,-6.394623 18.100647,-8.709412c-0.010315,-0.257355 -0.390747,-0.482086 -0.705933,-0.625214c-5.167175,-2.328613 -31.273926,-1.374542 -42.129211,4.368591c0,0.001221 -6.181152,3.671783 -6.181152,3.671783c-11.41629,7.117706 -27.050964,16.866547 -60.149872,12.339905l-3.007629,-0.284973c-3.920837,-0.303772 -8.367279,-0.647797 -9.141388,-3.032898c-0.760742,-2.342438 1.277344,-7.33609 27.643158,-23.588806c8.609894,-5.309998 23.344696,-20.893616 23.242645,-27.480316c-0.017853,-1.087128 -0.4263,-1.847809 -1.249359,-2.327393c-0.848145,-0.493317 -2.03952,-0.596222 -3.540405,-0.304993c-7.861053,1.523956 -23.760651,14.128693 -35.740906,31.836243c-13.929657,20.589874 -31.439667,30.294739 -42.61615,30.779358c-1.455078,0.063965 -2.291321,-0.192078 -2.556305,-0.780823c-0.827362,-1.836548 5.103516,-6.083313 12.943787,-11.444794l4.555908,-3.193573c9.490601,-7.208069 11.935852,-14.723694 16.374786,-28.36908l0.297546,-0.910156c11.892914,-36.485931 20.528107,-49.492401 70.67514,-52.178802c0.142059,-0.007507 0.27829,0.055237 0.3479,0.163177" fill="#78d3d3"/>
      </g>
     </g>
    </g>
   </g>
   <g id="g3876" fill="#89a02c">
    <g id="g3878" fill="#89a02c">
     <g id="g3884" fill="#89a02c">
      <g id="g3886" fill="#89a02c">
       <path stroke-width="0" stroke="#ff7f00" id="path3894" d="m332.138153,149.957611c-6.38382,-4.337158 -13.621674,-9.253036 -23.7117,-10.362701c-1.85611,-0.204651 -2.023407,-0.569977 -2.024841,-0.57373l0,-0.003754c0,-0.017548 0.029633,-0.089111 0.196838,-0.197067c2.205414,-1.443649 19.204834,-3.022842 42.906281,8.497269c3.654449,1.777573 5.73114,5.212082 4.628387,7.654999c-0.930908,2.062515 -3.892731,2.805634 -8.124481,2.039917c-4.755615,-0.863663 -9.184326,-3.871414 -13.870483,-7.054932m-57.478119,19.611923c6.297882,-0.443161 22.353027,-0.438095 35.387207,9.161316c4.428467,3.263809 6.207611,6.702194 4.758545,9.200287c-1.392822,2.397675 -5.549072,3.388153 -10.594788,2.523209c-5.669006,-0.970306 -9.885925,-4.661072 -14.35144,-8.567566c-6.043427,-5.28746 -12.296997,-10.749329 -23.102051,-11.00293c0.994629,-0.381622 3.626434,-1.013046 7.902527,-1.314316m-20.465851,40.584595c-2.344604,-1.626846 -4.19632,-2.913483 -4.452347,-4.480194c-0.048767,-0.28624 0.071014,-0.507156 0.377441,-0.694168c1.640045,-1.007996 7.279282,-0.478287 13.060715,1.918045c4.600342,1.906906 15.356476,7.649948 15.850922,19.760132c0.067993,1.736084 -2.998779,5.075333 -6.262512,5.430527c-3.100861,0.336426 -5.51062,-2.129028 -6.786407,-6.944427c-2.206909,-8.33786 -7.744171,-12.182907 -11.787811,-14.989914m-68.645981,-71.563477l-0.00885,0l0.00885,0zm127.910629,-54.019196c-2.048492,6.080788 -3.984436,11.826447 -6.978821,16.72094c-5.686737,9.290665 -10.667389,11.351952 -13.201324,10.294907c-3.472443,-1.448631 -4.15921,-8.590134 0.784424,-17.603355c10.164185,-18.54493 8.987457,-33.564926 -3.313934,-42.29068c-0.111084,-0.079067 -0.265015,-0.095387 -0.395294,-0.042671c-59.236649,23.755783 -41.331329,61.046463 -34.589386,75.084732l1.401733,3.020317c2.818237,6.723541 1.426819,11.959457 -1.201904,14.167618c-1.558563,1.306808 -3.531601,1.63942 -5.708817,0.961563c-5.165649,-1.610611 -5.933914,-10.876129 -6.820511,-21.604164c-0.973877,-11.773659 -2.189133,-26.425804 -9.808914,-35.883408c-5.202621,-6.456154 -18.341934,-9.771454 -40.170929,-10.133018c-0.156998,-0.002533 -0.300446,0.080368 -0.35376,0.205872c-15.77092,36.523643 -6.765778,48.724213 22.989502,74.278854c10.921997,9.377243 11.04332,9.712448 14.166382,18.292557l0.65126,1.780075c1.008026,2.746643 0.709015,5.030045 -0.839249,6.429779c-1.379501,1.2453 -3.703232,1.714737 -6.068542,1.225128c-2.975082,-0.615097 -5.256012,-2.496765 -6.1026,-5.033768c-11.687256,-35.022369 -30.54567,-35.852081 -32.259613,-35.853378c-10.593414,-6.125992 -35.008301,2.334885 -40.046692,5.616318c-0.13768,0.091644 -0.183563,0.252304 -0.106598,0.386627c1.660721,2.912354 9.831131,27.04097 9.912521,27.283234c8.772781,20.274857 16.767029,24.152512 27.107239,27.418808c7.212784,2.279678 13.593704,2.313583 22.028976,0.114304c12.276199,-3.196106 17.507111,1.296707 20.317871,3.709412c1.154465,0.991745 1.989288,1.708542 2.773727,1.14119c0.281311,-0.203445 0.581787,-0.603943 0.426315,-1.36084c-0.550629,-2.692612 -6.579239,-8.354141 -17.769089,-11.950638c-20.347488,-6.549072 -32.801285,-20.375214 -35.871155,-27.550659c-0.620193,-1.449936 -0.649826,-2.254578 -0.470673,-2.525742c0.519547,-0.783264 1.552689,-1.208893 3.072754,-1.262833c7.850586,-0.279968 27.148773,9.756348 40.7379,26.739655c4.353058,5.436874 8.540344,7.901062 12.447922,7.322311c6.394226,-0.9478 9.450714,-9.512878 10.235229,-12.115173c2.609406,-8.655396 -0.731216,-24.5215 -17.930435,-43.09523c-11.772995,-12.721512 -15.094452,-27.113762 -13.19838,-35.102669c0.571289,-2.406448 1.591064,-4.064781 2.871368,-4.668541c0.562469,-0.264877 1.302536,-0.194618 2.198074,0.212158c7.455444,3.381805 21.769913,27.289444 22.580994,35.790543c2.307556,24.256653 11.289032,28.045227 13.987335,28.628906c2.538376,0.548599 5.013168,-0.277435 6.46376,-2.151611c17.733582,-22.993805 12.353271,-40.156609 8.793488,-51.512222c-0.94577,-3.017792 -1.762817,-5.622604 -2.081085,-7.947449c-1.348419,-9.881943 8.562653,-23.667908 13.029633,-26.218781c0.669067,-0.381569 1.204987,-0.514656 1.506897,-0.374054c2.193451,1.020554 2.122467,10.625053 1.540833,16.832634c-0.031067,1.895561 -1.144257,5.557335 -2.43042,9.796577c-2.986938,9.839264 -7.079559,23.315155 -2.29715,28.965347c1.352814,1.598038 3.349518,2.49057 5.933807,2.651245c17.57666,1.09465 31.608368,-24.084641 35.490814,-31.828743l1.474121,-2.993965c4.023071,-8.223663 11.509613,-23.531052 16.870697,-24.837868c0.711975,-0.173233 1.343994,-0.084129 1.936066,0.272453c4.928833,2.975121 -6.14859,17.50927 -10.880615,23.715561l-2.240814,3.021545c-1.597076,2.406448 -3.368744,6.533989 -1.715515,8.04039c0.855469,0.778297 2.408173,0.723053 4.619415,-0.160667c49.948944,-19.97348 69.957428,-12.801804 72.074066,-11.918068c0.925079,0.385376 1.237305,0.650253 1.361603,0.798363c-0.356659,0.017616 -1.086395,-0.045204 -1.881226,-0.11425c-23.47049,-2.092613 -52.913452,6.640724 -87.510223,25.953918c-51.523682,28.763214 -70.450211,72.958176 -77.147873,96.741516c-0.956161,3.373077 1.190063,5.370316 2.158051,6.072083c1.527481,1.109756 3.459137,1.53894 4.80304,1.068192c0.885162,-0.308746 1.417999,-0.980316 1.505356,-1.887955c0.0784,-0.795853 0.753357,-2.62236 2.348938,-3.192307c1.258087,-0.449387 2.834534,-0.021332 4.674316,1.271698c2.215775,1.55278 1.817566,4.797867 1.315811,8.907715c-0.663101,5.424316 -1.487564,12.174133 3.462021,18.20607c6.811676,8.307709 15.834534,13.273743 26.820129,14.758759c14.804474,2.001007 28.506073,-3.062897 32.822174,-5.828369c0.094666,-0.060303 0.153931,-0.150665 0.153931,-0.249847c-0.001465,-0.099213 -0.05191,-0.188293 -0.146576,-0.247253l-1.045074,-0.649048c-3.906036,-2.353729 -11.177948,-6.73732 -11.291901,-26.52002c-0.119873,-21.437164 -20.773712,-35.9776 -31.350769,-37.438782c-5.282654,-0.730637 -8.618866,-2.110275 -10.199615,-4.215454c-1.21817,-1.623093 -1.389893,-3.675568 -0.527069,-6.275314c0.583252,-1.760025 1.762909,-2.943787 3.503601,-3.51741c3.100861,-1.020569 7.948334,-0.048981 12.974884,2.599731c3.28299,1.728622 7.208282,6.714767 11.753784,12.489197c7.359192,9.347214 16.51535,20.980301 28.813843,27.067337c20.054413,9.929688 45.792511,-11.183609 46.050171,-11.39827c0.119751,-0.099167 0.146484,-0.254868 0.063599,-0.377884c-0.082977,-0.124298 -0.253174,-0.18573 -0.415924,-0.149429c-4.697998,1.038208 -8.011993,-4.794022 -12.600403,-12.864548c-7.75296,-13.640411 -19.469757,-34.252808 -48.62854,-34.011765c-16.127594,0.134308 -20.002563,-4.280624 -20.877319,-6.924362c-0.688324,-2.087631 1.1604,-3.843811 2.831512,-4.948502c6.149963,-4.067245 19.687256,-6.019272 27.27298,-2.342407c5.03241,2.439087 10.775391,7.813141 16.857269,13.503479c8.75061,8.188492 17.798767,16.656967 26.512268,18.301422c12.939453,2.444168 22.86377,-1.695938 33.368347,-6.07579l4.619507,-1.90184c0.088654,-0.037628 0.159851,-0.105423 0.192383,-0.188263c0.029633,-0.081589 0.020813,-0.170715 -0.026764,-0.246002c-3.174713,-4.928452 -5.269135,-9.651001 -7.294098,-14.21788c-6.664948,-15.03624 -11.929779,-26.912872 -50.278809,-28.994217c-2.764862,-0.150635 -5.133148,-2.106415 -5.281128,-4.361c-0.186462,-2.838272 3.099396,-5.0439 8.789093,-5.897522c11.450409,-1.716026 22.068878,1.169975 32.336609,3.958061c12.149017,3.301514 23.62442,6.419754 36.338959,2.579681c12.026123,-3.631653 18.599304,-10.894989 23.398041,-16.196167c1.725891,-1.906891 3.216248,-3.553894 4.697845,-4.786613c0.105164,-0.086586 0.13916,-0.21714 0.088898,-0.332603c-3.200012,-7.420235 -17.621094,-28.798462 -35.751343,-32.032166c-16.365906,-2.916122 -30.113403,6.649452 -41.158234,14.33709c-6.971405,4.850601 -12.99118,9.039574 -17.481903,8.32151c-0.673492,-0.107956 -2.277954,-0.48951 -2.615448,-1.707214c-0.460266,-1.668312 1.271454,-5.111717 12.132721,-12.049873c25.32663,-16.177399 13.95929,-31.985653 13.461823,-32.649712c-0.063599,-0.086658 -0.173096,-0.140598 -0.293091,-0.145645c-36.614044,-1.604324 -43.037933,17.460304 -49.253082,35.898499" fill="#78d3d3"/>
      </g>
     </g>
    </g>
   </g>
   <path stroke-width="0" stroke="#ff7f00" id="path7488" d="m139.405167,384.218872c-7.573151,-5.38974 -7.356186,-20.270264 -21.606873,-14.965637c-13.758919,-1.344635 -17.049347,-16.033356 -10.553215,-24.746582c5.556892,-9.662323 16.501534,-16.357361 21.105431,-26.492554c-10.833344,-5.015625 -16.321854,7.7453 -19.658966,14.278076c-5.266205,9.414337 -10.492371,20.825409 -22.65033,25.05423c-14.042824,3.724945 -8.952232,-16.107819 -20.321129,-12.513855c-11.469357,3.393433 -18.44754,-7.309875 -8.75436,-13.256104c0.201206,-10.609772 1.597221,-21.922455 14.760349,-27.02356c16.262726,-9.415802 37.924232,-11.880005 56.461105,-6.158325c-8.71273,7.2099 -23.959038,2.957611 -32.843491,10.701752c-9.112541,8.170532 5.657051,16.495209 13.922707,9.260162c8.860168,-1.976257 24.346565,-16.802399 29.466194,-5.592072c-4.448074,6.992859 -16.514687,22.351715 1.237167,22.996582c11.215225,-3.388458 12.459473,15.559662 21.943054,6.304108c5.874298,-9.127167 -4.696548,-17.412933 -5.129013,-26.623688c2.796356,-10.878479 6.443665,5.228058 8.710129,9.064636c7.085159,13.157806 22.854401,24.200439 21.019272,39.943542c-5.029007,9.004944 -17.92775,12.106659 -23.848602,20.72229c-6.604111,4.413452 -17.739548,5.288818 -23.25943,-0.953003zm-9.584778,-111.103729c-21.927605,-2.508087 -45.9897,-11.891174 -53.60273,-30.876434c-5.344116,-10.542038 13.296669,-14.069382 7.092659,-23.486282c-0.717651,-11.745621 17.67337,-19.367859 27.608795,-10.760666c8.300354,7.400833 18.806305,-5.930557 26.287949,4.297394c9.207077,8.203812 5.45253,19.446625 4.220856,29.314468c-0.328979,9.090942 2.134781,18.104507 5.903503,26.568008c-7.254272,2.40271 -9.607895,-12.561569 -14.490768,-16.770218c-4.040466,-6.816696 -9.683205,-18.259033 -21.012627,-14.824478c-7.614052,6.950623 3.291138,16.060501 6.840439,22.858856c2.914032,4.108337 22.435539,12.662994 11.151924,13.679352l0,0zm79.093231,-11.64801c-14.093124,5.713348 -25.608459,15.084747 -35.33342,25.294464c10.563614,3.711578 18.027481,-11.570038 28.102982,-5.610718c2.322418,4.845001 -3.322372,10.947052 6.971405,9.909088c13.175842,-3.921478 19.570221,13.393799 5.34903,15.112213c-7.427002,1.816895 -21.505096,-7.376465 -15.465439,3.772156c3.977005,12.396942 -18.32222,9.717072 -20.935013,0.569794c-2.365616,-5.088104 -11.05307,-12.08606 -11.260483,-2.304504c1.052139,9.180176 6.848541,17.770447 13.305954,25.060211c7.726776,7.722595 18.395493,15.350159 30.924057,15.299103c13.41507,-1.069183 22.298065,-12.283142 22.952866,-23.025116c5.308548,-8.540375 20.364349,-7.107605 25.534714,-16.307129c7.907898,-9.223511 7.211212,-24.879974 -5.564545,-30.760925c-8.06633,-7.426086 -11.724335,-21.503113 -26.911804,-19.815216c-6.044846,-0.168518 -12.042313,1.005524 -17.670303,2.80658zm-5.651276,-58.149139c-10.165985,1.050781 -12.009232,19.296204 -21.225983,8.554413c-11.009262,-5.387955 -20.896576,4.531433 -26.00766,11.780746c-10.200546,15.954285 -6.903473,35.412308 0.283585,51.696609c5.843369,4.357788 -1.222275,-8.220703 0.804962,-10.904633c0.998367,-6.605713 2.206482,-19.727158 11.489151,-20.364502c2.481842,5.489532 9.04187,9.777313 11.431488,1.287933c6.552216,-9.07634 23.614136,-0.103775 11.406754,7.432037c-8.602585,8.270813 -21.504364,16.459564 -22.126205,28.149719c8.177475,-1.201508 14.036453,-12.597809 23.40239,-15.614716c10.620575,-6.372009 23.369141,-9.43071 34.366699,-15.109085c11.53801,-6.290359 12.508057,-21.080032 0.028473,-26.117081c-0.091919,-10.150787 -3.646423,-24.223969 -19.678192,-21.664215l-2.122787,0.340118l-2.052673,0.532654l0,0z" fill="#78d3d3"/>
   <path stroke-width="0" stroke="#ff7f00" d="m31.899042,304.120789c-4.401676,-2.972382 -16.877782,2.038879 -14.416183,-6.292542c-2.52823,-3.80957 -11.64743,-7.624939 -4.022615,-11.889191c5.715603,-3.124634 -1.544462,-9.220306 5.351627,-11.835968c4.726986,-3.512146 7.793644,1.770996 5.247341,5.080383c1.535938,7.296448 12.571079,5.913574 18.09124,2.860779c5.566425,-1.526123 2.891907,-6.313904 -2.030422,-5.831573c-7.578636,-1.813416 -0.423515,-10.860443 4.302376,-5.309204c1.728756,5.363342 8.018341,10.226807 14.291447,6.162567c4.37682,-2.426422 0.67617,-5.600983 -3.170158,-5.766663c-5.608921,-2.057434 -1.781082,-10.862488 3.372662,-6.621765c2.536758,4.599823 5.433598,12.717957 13.375332,9.753418c5.407845,-2.513977 -0.338531,-6.631287 -3.45665,-8.019379c-3.811081,-5.517029 8.470459,-8.43222 7.24675,-1.478058c-0.895889,7.05719 7.228111,9.153809 13.896393,7.60376c12.188889,-1.262238 24.606743,-0.08194 36.526344,2.257385c11.70063,2.543762 23.314796,6.904907 31.95771,14.190826c4.182556,5.688171 -3.756134,13.886108 -11.170273,11.224487c-8.762451,-1.780273 -15.29097,-7.592255 -23.675293,-10.160095c-15.545074,-6.419342 -32.539215,-11.003113 -49.971901,-10.956146c-8.16275,1.254456 0.428726,11.744751 -7.34346,13.032135c-7.265125,-0.912689 -3.055111,-9.110352 0.553886,-10.741547c-2.804741,-4.976257 -13.941349,-0.727264 -13.375023,4.428711c1.041302,3.99118 -0.201923,11.601685 -6.73521,7.43045c-5.058636,-4.522736 7.000164,-6.019501 3.745731,-10.217194c-5.249283,-2.627411 -11.181129,2.556335 -15.017639,5.329376c-5.606018,4.822449 4.259171,9.491669 1.445305,14.522614c-1.193501,1.27713 -3.228977,1.537659 -5.019316,1.242432z" id="path7490" fill="#78d3d3"/>
   <path stroke-width="0" stroke="#ff7f00" d="m220.726685,369.695526c4.364243,-5.865631 14.762939,-4.635193 19.032211,-10.588745c-2.973999,-6.479126 -0.778061,-15.930054 7.919617,-18.19281c11.801224,-3.581543 24.050247,2.239288 32.497482,8.97525c5.828613,3.911438 11.665649,8.017487 18.61203,10.430786c5.343933,-5.403229 -2.709198,-11.54422 -8.589294,-13.291412c-12.795685,-5.6763 -28.05777,-9.358002 -36.636948,-19.956116c-3.772614,-5.411499 1.51947,-15.005005 9.686386,-12.875793c7.965149,0.238678 5.126556,-8.388428 2.747375,-11.748199c0.183868,-7.171844 11.454193,-9.547211 15.256165,-3.220886c7.147278,3.931427 16.925323,-1.671265 23.44397,3.727112c17.710205,12.485352 24.42215,34.182678 18.926971,52.840302c-0.610535,3.095154 -2.350586,7.711548 -4.728027,2.671478c-2.565125,-4.971161 -0.286377,-10.914276 -3.862823,-15.62915c-2.274719,-5.262756 -4.930176,-12.350189 -12.443573,-13.379761c-6.737244,-0.518494 -8.367096,7.10437 -6.128387,11.308105c2.694183,5.511475 6.907166,10.408661 9.84317,15.84848c1.079468,3.684692 7.383789,8.532593 3.018982,11.660553c-5.257111,2.714935 -10.769135,-1.225067 -14.936096,-3.75827c-4.581604,-4.252594 -15.333313,-3.703796 -16.726746,2.694977c2.250305,5.126221 0.549713,10.847351 -6.534576,12.356293c-9.110657,2.669739 -1.508179,12.92514 6.223541,10.651825c9.726135,-1.957092 19.159851,-5.823822 29.349213,-5.835968c4.350647,5.890656 -9.451447,3.668396 -13.016357,6.380096c-15.485382,5.715515 -27.768707,17.720612 -45.293015,19.198364c-8.32782,0.757935 -13.37735,-6.072754 -17.09433,-11.313477c-4.539139,-5.121399 -13.212692,-7.662628 -14.840118,-14.500854c-2.054703,-4.917725 -1.027573,-11.274811 4.273178,-14.452179zm131.001282,-8.128967c2.51593,-15.33844 10.05426,-30.990021 24.929932,-40.61853c6.520447,-3.991455 14.970551,-6.315582 22.973846,-4.701996c3.763794,1.490326 3.385681,6.34668 7.515594,7.402313c4.811615,0.059875 9.56366,-2.747742 14.401031,-1.08493c9.254333,3.034363 14.483673,13.404388 9.343658,20.877319c-2.967499,2.296722 -8.202667,5.813477 -4.928131,9.614502c3.309814,3.328522 4.095856,8.834351 0.232147,12.094757c-6.512024,7.316071 -18.674347,9.488861 -28.744171,7.082977c-10.578674,-1.669373 -21.563049,-0.81897 -31.77243,1.976837c-3.37915,0.483917 -7.742401,2.640839 -10.385101,2.432129c-0.434967,-4.038879 5.239014,-4.78656 8.445007,-6.313721c10.605865,-5.25116 22.830872,-8.786407 31.255524,-16.697479c2.75473,-3.234772 1.176727,-9.211304 -4.020081,-9.70639c-7.175781,-0.407318 -13.141571,3.576691 -19.189178,6.218689c-5.836029,3.203491 -11.047882,7.345673 -14.690979,12.397705c2.257935,4.941986 -9.916046,2.706787 -5.366669,-0.974182zm13.733795,67.079956c-6.730286,-11.955994 -17.791016,-21.714722 -29.824219,-29.966583c-2.869812,6.421722 4.625153,11.174896 7.343872,16.503906c4.638031,4.875977 -5.167908,13.028473 -8.812012,6.120148c-8.360931,2.818451 1.124817,12.989166 -6.829163,16.953613c-6.627563,5.165558 -16.466431,-1.550079 -15.118134,-8.277893c-0.897614,-4.110352 7.741241,-10.388855 2.333099,-12.62149c-4.673401,3.619598 -14.573853,5.433563 -16.09906,-1.68985c-1.156219,-8.515533 8.246826,-15.022827 16.979919,-17.305573c6.94989,-5.468262 -6.811676,-7.645233 -10.949432,-4.634155c-18.260864,3.573242 -33.992126,15.202789 -41.034515,29.87561c-2.827728,8.277313 2.381805,17.626617 11.167267,21.694183c6.068573,5.00058 18.208038,1.316864 21.595886,9.204193c2.017273,6.767487 6.498993,12.681122 13.216583,16.760559c10.073608,6.071167 25.819885,6.049835 34.199585,-2.260315c3.868591,-7.604645 15.204376,-8.171631 21.167755,-13.892426c5.999451,-7.872284 4.40744,-18.149719 0.662567,-26.463928zm68.56311,-4.792847c-2.792572,-6.062897 -9.63678,-9.884583 -16.453247,-12.292145c5.21579,-3.307098 10.6651,-9.233734 7.443207,-14.964294c-7.732574,-12.41864 -24.939484,-18.467285 -40.920959,-18.191406c-12.651398,-0.000977 -25.346222,2.215332 -37.007813,6.324982c-3.491608,3.707001 5.892517,0.037628 7.989166,0.281281c10.329285,-1.222839 21.186035,0.961121 29.80484,5.854065c5.474365,4.571014 -2.616394,5.431183 -6.198944,6.69754c-2.927765,4.656036 6.377716,5.935394 8.291809,9.764496c4.080231,3.002838 3.379761,9.970032 -2.954773,10.03125c-7.017975,0.15686 -10.547455,-5.96402 -15.326965,-9.286865c-7.427002,-6.380768 -16.41626,-12.128784 -27.071106,-13.690704c-1.764435,4.21698 6.700409,5.65329 8.564728,9.197754c10.716553,9.291504 18.029663,20.925568 23.627136,32.918213c3.578247,7.046936 9.816498,14.312744 19.472687,15.334167c6.044281,0.936584 13.884674,-1.55188 14.806,-7.267883c3.362396,-4.553284 11.095856,1.198669 16.110107,-1.904694c6.799988,-1.411865 11.072998,-7.057922 10.984283,-12.813232c0.086426,-2.035492 -0.276703,-4.094025 -1.160156,-5.992523z" id="path6656" fill="#78d3d3"/>
   <path stroke-width="0" stroke="#ff7f00" id="path6658" d="m315.169403,278.518372c3.504791,-3.733246 -2.403931,-14.314331 7.419464,-12.226624c4.491882,-2.144226 8.99057,-9.878357 14.018433,-3.411652c3.684296,4.847504 10.871613,-1.309875 13.955658,4.538879c4.141205,4.008942 -2.088104,6.609833 -5.990265,4.450226c-8.602997,1.302643 -6.972534,10.661804 -3.373077,15.343384c1.799591,4.721069 7.444641,2.452728 6.876007,-1.721954c2.138092,-6.427582 12.805511,-0.359192 6.259949,3.648895c-6.323853,1.466187 -12.058228,6.800446 -7.266113,12.120697c2.860931,3.712036 6.604095,0.573486 6.799347,-2.688599c2.425903,-4.75705 12.807861,-1.510437 7.807617,2.860413c-5.423615,2.151459 -14.995514,4.608276 -11.500153,11.343781c2.964203,4.586456 7.818878,-0.287109 9.455688,-2.931641c6.504974,-3.232208 9.942261,7.183868 1.742676,6.146057c-8.321198,-0.759796 -10.793182,6.130249 -8.965576,11.785706c1.488373,10.337555 0.096558,20.869293 -2.661652,30.978394c-2.999268,9.923584 -8.141327,19.773651 -16.732208,27.103882c-6.706879,3.54715 -16.372894,-3.185577 -13.234558,-9.473724c2.099091,-7.431549 8.951965,-12.968414 11.979614,-20.079315c7.56897,-13.183929 12.973602,-27.596924 12.918243,-42.381805c-1.479095,-6.922974 -13.848114,0.363556 -15.366119,-6.228149c1.076141,-6.161621 10.742035,-2.591064 12.665314,0.469849c5.867523,-2.378693 0.857574,-11.823792 -5.221832,-11.343475c-4.705933,0.883026 -13.679413,-0.171265 -8.761139,-5.712219c5.332703,-4.290344 7.097565,5.936859 12.046967,3.176666c3.09787,-4.451843 -3.014221,-9.482727 -6.283813,-12.736572c-5.686127,-4.754547 -11.191528,3.612244 -17.123352,1.225769c-1.50589,-1.012146 -1.813202,-2.738464 -1.465118,-4.256866z" fill="#78d3d3"/>
   <path stroke-width="0" stroke="#ff7f00" d="m230.120377,399.840973c-13.299576,-1.257141 -24.902496,-9.527527 -29.561615,-20.056732c-3.364273,-6.704346 -6.376312,-14.006927 -5.348877,-21.389648c0.67662,-1.771851 1.257538,-5.68866 2.992508,-2.198212c8.226486,9.993622 18.729706,18.959076 31.701141,24.430725c7.89505,3.405914 17.185684,3.986755 25.753143,2.341705c3.692383,-0.823364 10.394806,-2.781372 7.857605,-7.022339c-2.332977,-3.218842 -7.358215,-3.452698 -11.257156,-4.469635c-11.150192,-1.947968 -23.478134,-1.347717 -33.219589,-7.111969c-4.919586,-2.805603 -8.785873,-6.665405 -12.986496,-10.161621c7.692108,-0.272644 16.297867,-0.914825 21.868774,-6.006622c3.230011,-2.663086 5.017578,-6.297638 8.187027,-9.004211c5.596191,-2.390015 11.994186,0.006012 17.193024,2.074066c7.967316,3.279785 14.862396,8.665344 18.4039,15.63092c4.629333,7.729828 8.513702,15.786163 11.599304,24.050323c0.747742,4.232147 -3.519379,7.52478 -6.96936,10.014771c-11.126801,7.236023 -25.657608,9.488007 -39.390533,9.332886c-2.281067,-0.058441 -4.559082,-0.20816 -6.8228,-0.454407zm-72.720245,67.139771c-14.557846,-6.760742 -24.863312,-19.889557 -26.117813,-33.980377c-1.017456,-10.286163 1.75174,-21.365204 9.798691,-29.348419c3.679535,-3.407898 8.575989,-5.943176 13.953506,-6.826385c-1.070084,5.747284 -4.634399,10.890991 -5.880234,16.61319c-2.666718,9.234131 -4.088455,19.541351 0.968597,28.383881c1.469437,2.993042 7.369766,9.449982 10.199661,4.261963c1.928802,-5.167297 1.398621,-10.726624 1.754181,-16.084808c0.489151,-12.673004 0.814392,-25.84436 6.936005,-37.636871c2.651535,-4.509186 6.97023,-9.079163 13.077118,-10.095062c5.834396,0.030518 9.604126,4.651917 12.503128,8.380341c7.21843,10.472382 5.979813,23.55542 1.123398,34.545685c-5.584488,14.011902 -18.365585,24.762115 -25.537323,38.074097c-0.418167,4.227753 -4.827225,7.962585 -9.571762,4.942596c-1.087128,-0.375153 -2.149796,-0.798553 -3.207153,-1.229828z" id="path6662" fill="#78d3d3"/>
  </g>
  <title>Layer 1</title>
  <image x="40" y="348" width="2" height="34" id="svg_1" xlink:href="images/logo.png"/>
 </g>
</svg>