<?xml version="1.0"?><svg width="640" height="480" xmlns="http://www.w3.org/2000/svg">
 <title>hibiscus NAT</title>
 <defs>
  <radialGradient id="svg_21" spreadMethod="pad" cx="0.488281" cy="0.488281">
   <stop stop-color="#ffaaaa" offset="0"/>
   <stop stop-color="#005555" offset="1"/>
  </radialGradient>
 </defs>
 <metadata id="metadata8159">image/svg+xml</metadata>
 <g>
  <title>Layer 1</title>
  <g transform="matrix(-1.88097 -2.25976 2.35007 -1.80869 229.296 1774.83)" id="g3876" fill="#89a02c">
   <g id="g3878" fill="#89a02c">
    <g id="g3884" fill="#89a02c">
     <g id="g3886" fill="#89a02c">
      <path id="path3894" d="m394.123352,312.663544c-1.146881,-1.040405 -2.447144,-2.219574 -4.259796,-2.485779c-0.333435,-0.049072 -0.363495,-0.136688 -0.36377,-0.137604l0,-0.000916c0,-0.004211 0.00531,-0.021362 0.03537,-0.047241c0.396179,-0.346313 3.450104,-0.725128 7.708069,2.038269c0.656494,0.426422 1.029541,1.250305 0.831451,1.836334c-0.167236,0.49472 -0.699341,0.672974 -1.459534,0.489288c-0.85437,-0.207153 -1.649994,-0.92865 -2.491791,-1.692352m-10.325867,4.704529c1.131439,-0.106293 4.015656,-0.105103 6.357208,2.197601c0.795624,0.782959 1.115234,1.607727 0.854889,2.20697c-0.250214,0.575165 -0.996887,0.812714 -1.903351,0.605255c-1.018402,-0.232788 -1.77594,-1.118073 -2.578186,-2.055206c-1.085693,-1.268311 -2.209167,-2.578522 -4.150238,-2.639343c0.17868,-0.091553 0.651459,-0.243011 1.419678,-0.315277m-3.676666,9.735413c-0.421234,-0.390259 -0.753845,-0.698914 -0.799835,-1.074738c-0.008789,-0.068634 0.012756,-0.121674 0.06778,-0.166504c0.294647,-0.241821 1.307739,-0.114746 2.346344,0.460144c0.826447,0.457397 2.758759,1.835052 2.847595,4.73999c0.012177,0.416473 -0.538757,1.217468 -1.125031,1.302704c-0.557098,0.080658 -0.98999,-0.510712 -1.219177,-1.665863c-0.396484,-2.000092 -1.391235,-2.922424 -2.117676,-3.595734m-12.332123,-17.166626l-0.001617,0l0.001617,0zm22.978943,-12.958069c-0.368011,1.458679 -0.71582,2.836945 -1.253754,4.011017c-1.021576,2.228638 -1.916382,2.723083 -2.371613,2.469543c-0.623779,-0.347504 -0.747192,-2.060608 0.14093,-4.222687c1.825989,-4.448547 1.614594,-8.051514 -0.595367,-10.144684c-0.019928,-0.018921 -0.047607,-0.022858 -0.070984,-0.010193c-10.641754,5.698486 -7.42511,14.643768 -6.213898,18.01123l0.251801,0.724518c0.506287,1.612823 0.256317,2.868835 -0.215942,3.398529c-0.279968,0.313446 -0.634399,0.39325 -1.025543,0.230652c-0.92804,-0.386353 -1.066071,-2.608978 -1.225311,-5.182373c-0.174957,-2.82431 -0.39328,-6.33905 -1.762177,-8.607727c-0.934631,-1.548676 -3.295074,-2.343933 -7.216614,-2.430695c-0.028198,-0.00061 -0.054016,0.019257 -0.063568,0.049377c-2.833221,8.761261 -1.215454,11.687927 4.130035,17.817963c1.962097,2.24939 1.983917,2.329803 2.544983,4.388031l0.117004,0.426971c0.181061,0.658875 0.12738,1.206635 -0.150787,1.542389c-0.247833,0.298706 -0.665283,0.411346 -1.09021,0.293915c-0.534485,-0.147552 -0.944214,-0.598969 -1.096313,-1.20752c-2.099579,-8.401123 -5.487457,-8.600189 -5.79538,-8.600464c-1.903076,-1.469513 -6.289215,0.560059 -7.194336,1.347229c-0.024719,0.021973 -0.032959,0.060486 -0.019165,0.092743c0.29837,0.698608 1.766174,6.486572 1.780762,6.544678c1.57605,4.863495 3.012177,5.79364 4.869812,6.577179c1.295715,0.546875 2.442047,0.554993 3.957458,0.027405c2.205414,-0.766632 3.145081,0.311096 3.650055,0.889862c0.207397,0.237885 0.357391,0.409821 0.498291,0.273712c0.050537,-0.048798 0.104523,-0.144867 0.076599,-0.326447c-0.098907,-0.645905 -1.181976,-2.003967 -3.192169,-2.866699c-3.655426,-1.570984 -5.892731,-4.887573 -6.444214,-6.608826c-0.11145,-0.347809 -0.11676,-0.540833 -0.084564,-0.605896c0.093353,-0.187897 0.278931,-0.289978 0.552032,-0.302917c1.410309,-0.067139 4.877228,2.340332 7.318481,6.414276c0.782013,1.304199 1.534271,1.895294 2.236237,1.75647c1.148743,-0.227325 1.697815,-2.281921 1.838745,-2.906158c0.468811,-2.076233 -0.131378,-5.882202 -3.221161,-10.337646c-2.115021,-3.051605 -2.71167,-6.504028 -2.371063,-8.42038c0.102631,-0.577271 0.285828,-0.975067 0.515839,-1.119904c0.101074,-0.063538 0.233978,-0.046692 0.394867,0.050873c1.339355,0.811249 3.910919,6.546204 4.056641,8.585419c0.414551,5.818634 2.028076,6.727478 2.512787,6.867493c0.456055,0.131592 0.900635,-0.066528 1.161224,-0.516113c3.185791,-5.515747 2.219269,-9.632721 1.579742,-12.35675c-0.169922,-0.723877 -0.316681,-1.348724 -0.37384,-1.906403c-0.24231,-2.370453 1.538239,-5.677429 2.340729,-6.289307c0.120209,-0.091522 0.216431,-0.123444 0.27066,-0.089722c0.394104,0.244812 0.381378,2.548706 0.276855,4.037781c-0.005585,0.454712 -0.205566,1.333099 -0.436615,2.350037c-0.536621,2.360199 -1.27182,5.592804 -0.41272,6.948151c0.243042,0.383331 0.601746,0.597443 1.06604,0.635956c3.157593,0.262604 5.678375,-5.777374 6.375854,-7.63504l0.264832,-0.71817c0.722717,-1.972687 2.067657,-5.644623 3.030823,-5.958099c0.127869,-0.041565 0.241394,-0.020172 0.347748,0.065338c0.885468,0.713684 -1.104553,4.200104 -1.954651,5.688873l-0.402588,0.724823c-0.286896,0.577271 -0.605164,1.567352 -0.308167,1.928711c0.153687,0.186737 0.432617,0.173462 0.829865,-0.038544c8.973236,-4.791199 12.567749,-3.070862 12.947968,-2.858887c0.166199,0.092438 0.222321,0.155975 0.244629,0.191528c-0.064087,0.004211 -0.19516,-0.010834 -0.337952,-0.027405c-4.216461,-0.501984 -9.505829,1.592926 -15.721069,6.225769c-9.256134,6.899719 -12.656281,17.50116 -13.859467,23.206299c-0.171783,0.809113 0.213776,1.288239 0.387695,1.456543c0.274414,0.266205 0.621399,0.369202 0.862823,0.256256c0.159027,-0.074066 0.254761,-0.235168 0.270447,-0.452911c0.014099,-0.190918 0.135345,-0.629028 0.421997,-0.765747c0.225983,-0.107819 0.509186,-0.005096 0.839722,0.305054c0.398041,0.372467 0.326508,1.150879 0.236389,2.13678c-0.119141,1.301178 -0.267242,2.920319 0.621948,4.367249c1.223694,1.992828 2.844635,3.184113 4.818176,3.540314c2.659576,0.480011 5.121063,-0.734741 5.896454,-1.398132c0.016998,-0.014465 0.027618,-0.036102 0.027618,-0.059937c-0.000244,-0.023773 -0.009277,-0.045135 -0.026337,-0.059296l-0.187714,-0.15567c-0.701691,-0.564636 -2.008087,-1.616119 -2.028564,-6.361603c-0.021545,-5.142334 -3.731964,-8.63028 -5.632111,-8.980774c-0.949036,-0.175262 -1.54837,-0.506195 -1.832367,-1.0112c-0.218842,-0.389343 -0.249695,-0.881683 -0.094666,-1.505341c0.104797,-0.42215 0.316711,-0.706146 0.629395,-0.84375c0.557068,-0.244781 1.427948,-0.011719 2.330933,0.623657c0.589783,0.414642 1.294952,1.610718 2.111572,2.995911c1.322052,2.242188 2.966949,5.032745 5.176331,6.492889c3.602753,2.381897 8.226563,-2.682739 8.272827,-2.734222c0.021515,-0.023804 0.026337,-0.061127 0.011414,-0.090637c-0.014832,-0.029816 -0.045471,-0.044586 -0.074707,-0.035858c-0.843964,0.249054 -1.439331,-1.149963 -2.263611,-3.085938c-1.392822,-3.272034 -3.497742,-8.216522 -8.736023,-8.158722c-2.897339,0.032227 -3.593445,-1.026825 -3.75061,-1.66098c-0.123627,-0.500793 0.208466,-0.922058 0.508667,-1.187073c1.104828,-0.975647 3.536804,-1.443878 4.899567,-0.56189c0.904053,0.585083 1.935791,1.874207 3.028381,3.239227c1.572021,1.964233 3.19751,3.995636 4.762878,4.390106c2.324524,0.586304 4.107422,-0.406799 5.994598,-1.457428l0.829865,-0.456207c0.01593,-0.009064 0.028687,-0.025299 0.034546,-0.045197c0.00528,-0.019562 0.003693,-0.040924 -0.004822,-0.059021c-0.570343,-1.18222 -0.946594,-2.315033 -1.310333,-3.410553c-1.197388,-3.606903 -2.143219,-6.455841 -9.032562,-6.955109c-0.496704,-0.036133 -0.922089,-0.50528 -0.9487,-1.046112c-0.033508,-0.680847 0.556793,-1.20993 1.578918,-1.414673c2.057037,-0.411652 3.96463,0.28064 5.809235,0.949463c2.182556,0.791962 4.24408,1.539948 6.528198,0.618805c2.160492,-0.871155 3.341339,-2.613464 4.20343,-3.885132c0.310059,-0.457397 0.57782,-0.852478 0.843994,-1.148193c0.01886,-0.020782 0.024963,-0.052094 0.015961,-0.079803c-0.57489,-1.779968 -3.165619,-6.908112 -6.422668,-7.683838c-2.940094,-0.699524 -5.409851,1.595062 -7.394012,3.439148c-1.25238,1.163574 -2.333832,2.168427 -3.140594,1.996185c-0.120972,-0.025879 -0.40921,-0.117432 -0.469879,-0.409546c-0.082703,-0.400146 0.228424,-1.226166 2.179626,-2.890472c4.549927,-3.880615 2.507751,-7.672699 2.418396,-7.832001c-0.011383,-0.020752 -0.031097,-0.033722 -0.052643,-0.034943c-6.577667,-0.384827 -7.731689,4.188354 -8.848236,8.611298" fill="#5fbf00"/>
     </g>
    </g>
   </g>
  </g>
  <path id="svg_1" d="m482.378174,295.242035c3.355225,4.908569 -0.789795,11.604797 2.664703,16.477173c6.076813,0.099609 12.953705,4.706177 12.114777,11.389282c-0.730011,9.235718 -9.102264,15.686218 -17.048798,19.239594c-4.895264,2.694031 -9.948547,5.329895 -13.987823,9.279724c2.688141,5.425446 10.039948,1.945404 13.223114,-1.495239c8.423157,-6.871155 16.004181,-16.082275 27.074005,-18.456055c5.467529,-0.796936 11.516663,5.970612 7.332947,10.847412c-2.613068,5.360535 5.13739,6.258514 8.543213,5.738525c5.669434,2.483429 4.138,10.960205 -2.068909,11.47641c-5.312256,3.588013 -3.813354,12.10675 -10.105621,14.783203c-15.353638,7.988434 -34.716339,5.43808 -47.939636,-4.448364c-2.285248,-1.434479 -5.441223,-4.140656 -0.694733,-4.10675c4.748749,-0.117188 8.800079,3.392761 13.651825,2.500824c4.893188,0.176758 11.358856,0.693634 14.465973,-4.098267c2.46286,-4.429749 -3.126678,-8.049164 -7.163574,-7.902466c-5.21936,0.027771 -10.410156,1.294586 -15.645813,1.510864c-3.269836,-0.474487 -9.057495,2.236603 -10.22702,-1.772217c-0.568451,-4.482361 4.253448,-6.950989 7.54303,-8.963318c4.788422,-1.730408 7.620331,-9.252411 2.935852,-12.307678c-4.776764,-0.148773 -8.826782,-3.19101 -7.87674,-8.524567c0.639679,-7.098755 -9.859619,-5.279175 -10.396301,0.747711c-1.395752,7.284821 -1.17807,14.997864 -4.267456,21.959503c-6.025787,1.03421 -0.053833,-7.659973 -1.13443,-10.985657c0.147003,-12.453217 -5.701111,-24.787598 -1.550873,-37.239746c1.927704,-5.935822 8.916565,-7.138031 14.230804,-7.953278c5.468964,-1.415588 10.135803,-6.502777 16.089752,-5.365875c4.550781,0.213898 9.313385,3.00531 10.237732,7.669434l0,-0.000183zm-33.353516,92.125397c11.479675,6.760864 21.681854,17.054169 24.844147,30.377472c1.203278,5.764679 0.4888,12.298767 -3.233551,17.233185c-2.334564,2.080261 -6.096405,0.225433 -8.19519,2.698364c-1.511169,3.265717 -0.715149,7.433777 -3.513916,10.190216c-5.237,5.321716 -15.105957,5.483093 -19.508423,-0.483673c-0.930786,-2.781616 -2.146179,-7.512543 -6.176575,-6.526001c-3.663818,1.165558 -8.298187,-0.107849 -9.725922,-3.817871c-3.859985,-6.852112 -1.895447,-15.871368 3.08783,-21.95639c4.550079,-6.674652 7.211975,-14.454865 8.085144,-22.345337c0.641479,-2.466614 0.246613,-6.155029 1.216949,-7.890991c3.356598,1.030853 2.227753,5.151062 2.471954,7.842316c0.966248,8.968628 0.070404,18.478546 3.823669,26.832214c1.744507,2.944519 6.995605,3.832001 8.971436,0.446075c2.507568,-4.7659 1.141602,-10.149384 0.871735,-15.147614c-0.782257,-5.038391 -2.503998,-9.958984 -5.429016,-14.107697c-4.63205,-0.082825 0.85498,-7.660828 2.40979,-3.344208l-0.000061,-0.000061zm-57.727997,-12.676025c11.591644,-0.665009 22.746216,-5.009308 32.993591,-10.513062c-4.253632,-4.071075 -10.327759,-0.515747 -15.408905,-0.411255c-5.303192,1.563934 -8.828979,-7.812439 -2.205658,-8.029358c0.292877,-6.635864 -10.711548,-3.502563 -11.457275,-10.237091c-2.108002,-6.223969 6.245483,-10.734222 11.20639,-7.601837c3.554352,0.738464 5.939148,8.701752 9.366241,5.742859c-1.46814,-4.381256 0.094788,-11.738037 6.245514,-10.437653c7.149597,2.010254 9.48465,10.570496 8.65097,17.28418c2.25174,6.543396 8.174927,-2.137634 7.029572,-5.952972c2.701477,-13.644135 -1.798065,-28.209686 -11.369781,-37.842407c-5.747864,-4.652222 -14.796051,-4.168793 -20.71524,0.492981c-5.837646,2.499847 -6.58905,12.000305 -13.915924,11.720306c-6.016235,-0.847412 -12.100281,0.26889 -17.399994,3.514557c-7.910553,4.882538 -12.682617,15.641785 -8.597137,24.095978c4.894257,5.141876 1.899231,13.068726 4.652649,19.021515c4.459778,6.684937 13.14859,8.976807 20.924896,9.153229l0.000092,0.000031zm-17.026642,48.393219c5.689423,0.086426 10.822083,-3.330658 14.8172,-7.193756c1.05368,4.648987 4.127686,10.318481 9.682404,10.00238c12.265747,-1.197052 22.32785,-10.957916 26.968201,-21.961487c3.848541,-8.638489 5.940399,-18.035797 6.206299,-27.349701c-1.8974,-3.603058 -1.822144,4.011139 -2.654327,5.362732c-2.165436,7.455353 -7.210876,14.150696 -13.738281,18.427277c-5.314087,2.235168 -3.540039,-3.572327 -3.461426,-6.434845c-2.826508,-3.530029 -6.678009,2.403412 -10.317017,2.45163c-3.638123,1.798859 -8.987061,-0.970032 -7.109436,-5.315765c2.009277,-4.843536 7.969086,-5.241302 12.075378,-7.412323c7.352783,-2.973816 14.675507,-7.22226 19.163025,-13.984222c-2.829834,-2.591248 -6.550995,2.716675 -9.947601,2.824402c-10.676758,4.262787 -22.18869,5.431458 -33.465118,5.310883c-6.713928,0.126434 -14.411621,1.997406 -18.163849,8.255219c-2.58606,3.819336 -2.984131,9.99118 1.29895,12.49942c2.612213,3.793304 -4.331818,7.1828 -3.379425,11.627014c-0.940887,5.107269 2.266846,9.881531 6.888367,11.713135c1.598755,0.728149 3.352539,1.156982 5.136841,1.177826l-0.000183,0.000183z" fill="#00bfbf"/>
  <path id="path3416-4" d="m629.509338,151.572083c-19.727295,9.107224 -39.534546,22.841629 -62.638306,21.106979c-4.903503,2.306641 -23.666321,1.8685 -12.343872,-4.352402c7.205261,-4.509567 26.442261,-7.577133 27.444336,-9.431793c-9.41748,0.069 -24.240356,6.463043 -29.687439,5.812759c20.294434,-17.260132 52.536987,-22.603485 77.225281,-13.135544zm-2.490356,-34.238266c-10.125671,11.666916 -21.415771,26.273453 -39.606262,27.729752c-8.024597,0.237915 -22.075195,8.910828 -26.427246,4.848969c9.33783,-8.45401 22.198975,-12.59198 33.264038,-18.900772c-11.013367,-0.611053 -19.697449,7.323288 -29.887451,9.720978c5.187622,-7.892029 20.507813,-15.580681 32.328857,-19.064766c9.815125,-2.941734 20.133362,-4.40284 30.328064,-4.33416m-1.471313,-26.935966c-10.370544,10.514832 -17.731934,25.660843 -34.595154,29.323891c-6.858643,-0.259003 -18.58844,11.408524 -21.710144,5.708443c8.509277,-8.2621 19.297729,-14.460976 30.312866,-19.87542c-11.911133,3.705696 -23.10022,9.349777 -32.891846,16.434296c12.556152,-17.724091 35.502136,-29.617386 58.884277,-31.591209m-80.809509,-42.889c20.658508,31.973846 22.001709,72.725143 6.734741,108.302689c-10.29895,19.687683 -27.846313,36.113892 -47.088226,49.881027c-1.53656,-9.581741 11.202484,-13.34938 17.956207,-18.889603c6.753601,-7.572357 13.401489,-15.483307 18.62323,-23.992386c16.83136,-28.38768 20.265015,-61.346245 13.22345,-91.231911c-2.231506,-8.505219 -5.554199,-16.754658 -10.014526,-24.487587l0.273254,0.028931l0.29187,0.38884l0,0zm60.81134,144.763412c-21.876648,3.558502 -44.522217,10.780304 -66.361267,5.955795c-10.41095,6.097595 -14.920471,-10.506683 -2.114929,-7.975479c12.774841,-3.689651 26.30011,-4.151794 39.298645,-3.027664c-14.782837,-4.381714 -31.354614,-1.976074 -46.365906,2.321045c19.887329,-13.440643 50.817871,-16.638351 69.098572,-1.981155c2.216858,1.499695 4.350708,3.085587 6.444885,4.707458l0,0zm-119.206573,-96.146484c22.631256,-4.940865 49.987213,1.797234 59.241547,20.613609c5.922729,2.843719 1.010315,16.570259 -3.184814,6.568245c-7.39917,-7.873734 -16.793335,-14.77739 -28.373169,-17.750214c14.043945,9.27816 28.749512,20.654724 31.136719,36.890305c-7.520996,-13.985062 -24.914978,-20.01635 -38.980316,-28.03318c-7.77655,-5.049652 -14.636871,-11.169624 -19.840637,-18.288605m7.069916,22.685394c21.954712,2.913849 43.489746,17.02697 44.575928,37.329247c-9.594482,-1.915344 -9.095215,-20.47258 -19.106934,-17.189133c5.852844,7.188126 10.434509,15.319794 11.303284,24.418472c0.655762,4.316925 -0.514221,16.213181 -3.018982,6.608337c-8.799438,-18.341553 -29.819489,-30.716537 -33.753967,-51.166733m-13.893219,19.878769c18.273193,4.459885 37.748932,14.607178 40.520966,32.207336c4.591553,5.18457 -7.034973,18.838959 -6.456299,6.684753c-0.767395,-8.772278 -10.143555,-21.644379 -14.644897,-23.953964c8.683105,9.860596 11.159119,22.79451 11.344513,35.230637c-4.195038,-18.421768 -29.293945,-26.947571 -30.224426,-46.57811l-0.307709,-1.789459l-0.230164,-1.801682m149.317139,-69.361816c-13.591309,11.274773 -26.082092,24.594589 -43.786255,31.0737c-3.093567,4.462799 -18.117432,7.758049 -8.118408,-0.020065c4.400696,-5.497116 20.605591,-14.54203 19.136597,-16.53495c-9.267883,4.330948 -17.147827,10.555588 -26.104004,15.325935c10.634399,-18.35833 34.673584,-34.897194 58.87207,-29.84462l0,0zm-18.271301,-24.237026c-9.459839,18.07011 -26.38678,32.259762 -42.450562,46.215359c4.174988,-12.023972 14.175598,-21.780739 23.293152,-31.435299c-9.422852,2.072269 -14.593323,20.64912 -22.347229,16.316555c4.14563,-16.621326 23.528259,-27.366856 41.504639,-31.096615l0,0zm-10.829285,-27.353851c2.037781,14.142269 -6.774414,28.694118 -20.044006,37.617271c-5.772705,4.608158 -11.661499,16.222416 -15.052979,17.925655c1.729187,-11.448196 9.038208,-21.665657 15.020569,-31.958675c-9.128296,6.172428 -10.735046,17.22258 -19.974976,23.309971c-2.573303,-20.693291 16.551941,-41.728592 40.051392,-46.894222l0,0zm-31.661072,-13.82901c3.312927,11.93378 2.007568,25.621901 -6.467346,36.4482c1.375732,5.979691 -9.007568,11.47924 -5.539246,1.989609c0.877136,-3.690849 3.276672,-12.96501 0.334473,-12.63991c1.400818,4.3006 -6.407227,16.503649 -6.54303,5.96752c0.335083,-11.96044 7.585144,-23.689179 18.215149,-31.765419zm-51.475159,-2.74438c14.066956,0.81451 28.718872,9.54897 28.694214,22.614141c4.719543,3.77577 -5.863281,11.60948 -3.924805,3.487179c0.554932,-4.75724 -13.548706,-17.230689 -5.944824,-6.701479c4.068726,2.77383 6.266235,18.849598 -1.245544,11.24844c-8.048462,-8.987751 -16.51886,-18.674681 -17.579041,-30.64828l0,0zm-26.639038,74.9458c24.852295,-7.250557 53.558594,4.700638 61.276184,25.436531c-6.795959,-5.402718 -18.257507,-15.944748 -24.05304,-16.048393c11.075623,6.833153 19.45813,16.409775 25.634766,26.83239c-13.305481,-11.867195 -31.479858,-18.263039 -48.505615,-25.380058c-5.187866,-3.206482 -9.745636,-7.063766 -14.352295,-10.840469l0,0zm61.269043,1.394028c-10.301697,-6.396156 -20.40155,-14.080456 -33.591858,-15.870796c14.193481,5.889488 26.522522,15.174049 34.060852,27.130981c-13.290344,-9.995529 -30.401855,-15.02034 -46.007355,-21.804932c-10.596649,-2.783363 -11.757233,-17.88512 2.439514,-14.718533c18.591827,1.315571 33.65921,12.409534 43.098846,25.263279zm-58.636749,-46.130638c22.648163,-4.94701 47.255341,7.312981 52.505707,26.375561c-5.74115,-2.541382 -15.537842,-13.63982 -18.807678,-11.27253c3.888123,3.164051 16.541748,11.241528 12.781677,13.533268c-13.774292,-6.625488 -32.444702,-8.69627 -40.307465,-21.791218c-2.066467,-2.2743 -4.479858,-4.324642 -6.172241,-6.845081l0,0z" fill="#5fbf00"/>
  <path d="m249.723557,350.131897c-2.521454,-3.388458 -12.37207,-0.497345 -8.95076,-7.896301c-1.025055,-3.901428 -6.720291,-8.742737 -0.458145,-11.627197c4.679718,-2.095306 0.761032,-8.79361 6.174957,-10.248108c4.056961,-2.595978 5.167038,2.752136 2.696411,5.468658c-0.379898,7.003357 7.719406,7.282166 12.246017,5.226074c4.252228,-0.629913 3.320313,-5.461639 -0.26535,-5.71106c-5.006287,-2.761292 1.885559,-10.160156 4.117706,-4.327454c0.145782,5.23291 3.624542,10.647736 8.888336,7.75766c3.590363,-1.635712 1.606567,-5.112732 -1.086121,-5.812286c-3.561096,-2.708862 0.92392,-10.35437 3.722961,-5.679749c0.872162,4.63736 1.291412,12.597809 7.516479,10.967285c4.338684,-1.571136 1.094666,-6.214996 -0.835846,-7.948181c-1.590698,-5.671112 7.700195,-6.640533 5.433502,-0.346802c-2.055298,6.436035 3.280426,9.537903 8.318268,9.042114c8.892731,0.554535 17.456024,3.41333 25.432922,7.279175c7.78067,4.025055 15.134125,9.727814 19.793304,17.72934c1.819519,5.882904 -5.456726,12.381104 -10.17569,8.854248c-5.851807,-2.898193 -9.309082,-9.229156 -14.734497,-12.806c-9.725311,-8.174377 -20.846985,-14.847321 -33.211395,-17.275757c-6.03772,0.009003 -2.059906,10.983124 -7.827362,11.078308c-4.96524,-1.879181 -0.331635,-8.905792 2.554413,-9.911041c-0.986145,-5.025574 -9.734192,-2.653351 -10.370361,2.221954c-0.065369,3.859314 -2.478149,10.760651 -6.268951,5.954834c-2.674988,-4.923401 6.172668,-4.605225 4.710907,-8.970428c-3.191467,-3.187805 -8.438751,0.791656 -11.715866,2.826416c-4.943802,3.689789 1.108231,9.431091 -1.898468,13.710571c-1.102875,1.018494 -2.597885,0.972321 -3.807373,0.443726z" fill="#1a1ae0" id="svg_3"/>
  <path id="path7488" d="m325.300415,431.45282c-6.445648,-4.997467 -6.261017,-18.7948 -18.39035,-13.876312c-11.710815,-1.246796 -14.511383,-14.866333 -8.982269,-22.945221c4.729614,-8.959076 14.045013,-15.16684 17.963562,-24.56427c-9.220581,-4.650543 -13.892151,7.181519 -16.732605,13.2388c-4.482208,8.729126 -8.930328,19.309509 -19.278351,23.23056c-11.952515,3.453827 -7.619659,-14.935242 -17.296204,-11.602936c-9.761871,3.146362 -15.701279,-6.777771 -7.451004,-12.29126c0.171036,-9.837402 1.359482,-20.326752 12.563034,-25.05658c13.841888,-8.730316 32.278717,-11.015228 48.056091,-5.710083c-7.415741,6.68512 -20.392303,2.74234 -27.954254,9.922821c-7.756012,7.575775 4.814819,15.294556 11.850159,8.586121c7.541199,-1.832336 20.722321,-15.579346 25.079712,-5.185089c-3.785889,6.483917 -14.056213,20.724762 1.053009,21.322693c9.545654,-3.141785 10.604706,14.427124 18.676483,5.845276c4.999786,-8.46283 -3.997345,-16.145477 -4.365417,-24.68576c2.380188,-10.0867 5.484406,4.847504 7.413483,8.404785c6.030548,12.200043 19.452393,22.438934 17.890259,37.036133c-4.280365,8.349457 -15.25885,11.225464 -20.298431,19.213898c-5.62088,4.092255 -15.098846,4.903809 -19.796997,-0.883575l0.000092,0zm-8.15799,-103.016693c-18.663361,-2.3255 -39.143372,-11.025604 -45.623108,-28.628937c-4.548706,-9.77475 11.317291,-13.045288 6.036774,-21.776825c-0.61087,-10.890594 15.042389,-17.958099 23.498779,-9.977295c7.064911,6.86203 16.006744,-5.498962 22.374786,3.984528c7.836334,7.606659 4.640778,18.031158 3.592529,27.180634c-0.280182,8.429291 1.816925,16.786682 5.024628,24.634277c-6.174286,2.227722 -8.177612,-11.647278 -12.33371,-15.549561c-3.438843,-6.320618 -8.24173,-16.929962 -17.884674,-13.745544c-6.480438,6.444702 2.801361,14.89151 5.822388,21.195038c2.480194,3.809235 19.095703,11.741272 9.49173,12.683685l0,0l-0.000122,0zm67.319061,-10.800079c-11.995117,5.297455 -21.796143,13.986816 -30.073425,23.453247c8.99115,3.441406 15.343842,-10.727875 23.919434,-5.202301c1.976685,4.49231 -2.827637,10.150238 5.933624,9.187744c11.214386,-3.636017 16.656891,12.418915 4.552734,14.012238c-6.321381,1.684692 -18.303711,-6.839447 -13.163147,3.49762c3.384949,11.494598 -15.594818,9.009827 -17.818573,0.528381c-2.013428,-4.717773 -9.407684,-11.20639 -9.584106,-2.136841c0.895325,8.511902 5.829041,16.47699 11.325165,23.236145c6.576447,7.160431 15.656982,14.23288 26.320496,14.185486c11.41803,-0.991394 18.978699,-11.389008 19.536041,-21.349121c4.518311,-7.918762 17.332825,-6.590332 21.733673,-15.1203c6.73053,-8.551971 6.137543,-23.068878 -4.736298,-28.521759c-6.865601,-6.88559 -9.978851,-19.937927 -22.90567,-18.372955c-5.144958,-0.156189 -10.249634,0.932373 -15.039886,2.602417l-0.000061,0zm-4.809906,-53.916687c-8.652618,0.974426 -10.221436,17.891724 -18.066254,7.931793c-9.370361,-4.995789 -17.785828,4.20166 -22.136108,10.923248c-8.682007,14.79306 -5.875732,32.834747 0.241425,47.933807c4.973511,4.040466 -1.040131,-7.622375 0.685211,-10.110901c0.849701,-6.124908 1.87793,-18.291229 9.778839,-18.882263c2.112305,5.089905 7.69574,9.065643 9.729736,1.194183c5.576813,-8.415741 20.098877,-0.096283 9.708679,6.891022c-7.32196,7.668793 -18.303192,15.261505 -18.832489,26.100708c6.960388,-1.114044 11.946991,-11.680817 19.918823,-14.478088c9.039398,-5.908173 19.890198,-8.744263 29.250732,-14.009338c9.820465,-5.832458 10.645935,-19.545624 0.024231,-24.216003c-0.078247,-9.411896 -3.103729,-22.460846 -16.748962,-20.087341l-1.806732,0.315369l-1.746948,0.493805l0,0l-0.000183,0z" fill="#00bfbf"/>
  <path d="m452.443054,328.064362c-5.41626,-5.920868 -0.827576,-14.102112 -6.374054,-19.978027c-8.361145,-0.048096 -18.563568,-5.560028 -18.512817,-13.685822c-0.519135,-11.225037 9.914795,-19.158508 20.241608,-23.569092c6.278351,-3.330353 12.78302,-6.591583 17.679108,-11.43689c-4.585327,-6.556335 -14.107483,-2.242188 -17.911652,1.974091c-10.434631,8.445587 -19.327179,19.722351 -34.137238,22.737579c-7.376678,1.033325 -16.798431,-7.112976 -11.856781,-13.085449c2.705078,-6.541077 -8.085907,-7.538788 -12.676971,-6.866364c-8.194611,-2.948059 -7.48822,-13.26062 0.949921,-13.961975c6.703583,-4.420639 3.241791,-14.747864 11.441376,-18.073868c19.767426,-9.884842 46.776459,-7.019699 66.563782,4.827972c3.374329,1.714706 8.154083,4.963181 1.630554,4.979111c-6.501617,0.199036 -12.64325,-4.014847 -19.158752,-2.873505c-6.748566,-0.156189 -15.712372,-0.706375 -19.189362,5.150055c-2.652313,5.409225 5.619812,9.737381 11.139099,9.51091c7.162537,-0.095993 14.081848,-1.696518 21.23587,-2.022034c4.568329,0.536987 12.069244,-2.824631 14.335693,2.029724c1.519196,5.436447 -4.695404,8.492142 -8.881195,10.975388c-6.290314,2.158844 -8.939789,11.327515 -2.003632,14.98172c6.583984,0.123474 12.646667,3.76947 12.220886,10.257721c0.29126,8.628387 14.408997,6.293121 14.152985,-1.032379c0.71637,-8.863403 -0.853394,-18.227539 2.241943,-26.718842c8.104218,-1.328033 1.336151,9.301697 3.367767,13.327515c1.850159,15.124908 11.912933,30.033844 8.265656,45.205536c-1.66925,7.231598 -11.068146,8.775238 -18.231323,9.828827c-7.276825,1.784576 -12.847015,8.018463 -21.210358,6.708954c-6.284454,-0.205139 -13.284302,-3.537872 -15.322205,-9.191132l0.000092,0.000275zm30.621948,-112.276825c-16.877869,-8.073059 -32.583557,-20.451019 -39.121338,-36.592957c-2.602142,-6.986313 -2.69751,-14.929855 1.600922,-20.966919c2.863068,-2.554108 8.334381,-0.346527 10.809052,-3.374954c1.537048,-3.984024 -0.242828,-9.036224 3.146057,-12.417068c6.314697,-6.525299 19.840363,-6.839691 26.868835,0.353638c1.736572,3.36676 4.184967,9.097534 9.556946,7.851089c4.839081,-1.459335 11.412964,0.031784 13.984772,4.520248c6.429413,8.274902 5.217926,19.251572 -0.62262,26.700943c-5.148285,8.159988 -7.521729,17.640381 -7.420685,27.232971c-0.474396,3.003067 0.675629,7.477615 -0.370941,9.59758c-4.779144,-1.211899 -3.907898,-6.228943 -4.686584,-9.494293c-2.804718,-10.879913 -3.141479,-22.439682 -9.671753,-32.539429c-2.880829,-3.555054 -10.237732,-4.569916 -12.393158,-0.434235c-2.658142,5.817825 0.104767,12.339203 1.298828,18.405762c1.904327,6.109161 5.079376,12.064209 9.77951,17.067383c6.374451,0.045181 0.088226,9.31369 -2.758118,4.090164l0.000275,0.000076zm81.360596,14.702423c-15.808044,0.94635 -30.409729,6.355606 -43.574646,13.162125c6.511963,4.89296 14.267151,0.502655 21.227356,0.315079c7.024658,-1.962906 13.411194,9.381302 4.351746,9.724411c0.691162,8.061996 15.286194,4.125107 17.419922,12.294785c3.920288,7.532867 -6.807739,13.11026 -14.136108,9.36557c-5.002502,-0.854004 -9.589233,-10.496155 -13.807861,-6.861786c2.737732,5.30307 1.80365,14.256042 -6.856628,12.750214c-10.149231,-2.355377 -14.766052,-12.723083 -14.727356,-20.886414c-4.170227,-7.919098 -10.873657,2.694122 -8.672241,7.313904c-1.461487,16.601776 7.117004,34.236145 21.848206,45.819427c8.659424,5.580933 21.004761,4.885468 28.364868,-0.846649c7.604492,-3.105713 7.070801,-14.652039 17.178223,-14.399811c8.401123,0.957092 16.571777,-0.471313 23.31488,-4.476654c10.058044,-6.024048 14.838318,-19.147186 7.835266,-29.365082c-7.568054,-6.185638 -4.761414,-15.847977 -9.523193,-23.044037c-7.225586,-8.064789 -19.53479,-10.744095 -30.242249,-10.865082l-0.000183,0zm15.407471,-58.972809c-7.827026,-0.036957 -14.312073,4.174332 -19.161743,8.913391c-2.212891,-5.633057 -7.368225,-12.4814 -14.944031,-12.030945c-16.645935,1.600739 -28.855042,13.574905 -33.414185,26.993042c-3.861389,10.536774 -5.185608,21.974075 -4.016205,33.288239c3.199249,4.352722 1.84137,-4.893158 2.761414,-6.544434c1.745331,-9.079773 7.570404,-17.271225 15.829315,-22.542679c6.928955,-2.778061 5.449646,4.295853 5.813354,7.772934c4.462952,4.253036 8.774109,-2.99852 13.763367,-3.100723c4.699463,-2.228165 12.500977,1.070328 10.638489,6.37027c-1.960938,5.906219 -10.079407,6.460526 -15.360474,9.146088c-9.606873,3.699417 -18.962402,8.946487 -24.010559,17.212128c4.312927,3.112808 8.548096,-3.377548 13.194519,-3.549088c13.959229,-5.304779 29.574707,-6.861801 45.079346,-6.850464c9.198792,-0.233917 19.460999,-2.598175 23.582581,-10.242645c2.921814,-4.669312 2.451477,-12.169128 -3.843201,-15.163788c-4.212158,-4.575287 4.764832,-8.774643 2.724731,-14.160538c0.450623,-6.213486 -4.740845,-11.972946 -11.388977,-14.141785c-2.315369,-0.86525 -4.794434,-1.364883 -7.247925,-1.368866l0.000183,-0.000137z" id="path6656" fill="#00bfbf"/>
  <path id="path6658" d="m428.214325,213.635742c-0.566223,-4.0672 -10.509857,-5.715134 -3.990936,-10.789185c0.979492,-3.881836 -1.647461,-10.585434 5.175415,-10.461868c5.069763,0.145599 4.876251,-7.439957 10.276764,-6.415543c4.768829,-0.562225 3.169739,4.63353 -0.278839,5.978531c-3.687042,6.02182 3.215668,9.721741 8.133728,9.836563c3.996094,1.257156 5.502563,-3.406601 2.50705,-5.155884c-3.025696,-4.572998 6.508179,-8.166992 5.651489,-2.064941c-2.381683,4.682648 -1.954956,10.947189 4.003326,10.640152c3.903198,0.086594 3.846436,-3.829453 1.842438,-5.595367c-1.795319,-3.9104 5.765991,-8.748688 5.956879,-3.42746c-1.465271,4.466782 -4.916748,11.674149 1.27301,12.889053c4.522308,0.46283 3.929993,-5.020844 3.083618,-7.374329c1.336487,-5.685791 9.87265,-2.579742 4.886536,2.010727c-4.870453,4.806366 -4.567139,7.249161 2.892487,11.531113c7.459625,4.281952 13.528778,10.457657 18.60553,17.272858c4.830261,6.871826 8.485077,15.04303 8.697357,24.095032c-1.239288,5.970276 -10.675323,8.605164 -13.084442,3.478821c-3.694611,-5.054474 -3.663574,-12.118729 -6.662231,-17.590729c-4.530548,-11.364883 -10.994019,-21.999619 -20.571564,-29.416519c-5.249481,-2.566788 -7.054199,8.819351 -12.110352,6.443909c-3.41272,-3.776703 3.980804,-8.004898 6.969879,-7.661758c1.552185,-4.857834 -7.184631,-6.493927 -10.074463,-2.460358c-1.906616,3.379684 -7.310699,8.444458 -8.300476,2.584656c0.036102,-5.48793 7.570068,-1.434158 8.392517,-5.911804c-1.244568,-4.17569 -7.710541,-2.899506 -11.53299,-2.500366c-6.063599,1.14975 -3.557861,8.800049 -8.221283,11.296494c-1.44632,0.42894 -2.723022,-0.249451 -3.520447,-1.231796z" fill="#1a1ae0"/>
  <path d="m327.219391,220.587997c10.201996,2.22261 18.385468,9.430878 20.951355,17.620026c1.942291,5.253143 3.551605,10.911301 2.0159,16.233673c-0.702454,1.235367 -1.544952,4.055588 -2.543457,1.322311c-5.389496,-8.144165 -12.649658,-15.755585 -22.175659,-21.041779c-5.790405,-3.272964 -12.947052,-4.607208 -19.764343,-4.235809c-2.949646,0.244064 -8.349976,1.027496 -6.803406,4.390503c1.489807,2.592148 5.368713,3.254807 8.2948,4.382767c8.463928,2.52002 18.097168,3.283417 25.085785,8.469025c3.539917,2.541382 6.156372,5.754196 9.068939,8.732559c-6.000671,-0.551132 -12.747437,-0.920151 -17.582275,2.275696c-2.774261,1.640564 -4.525818,4.135559 -7.257446,5.813965c-4.584351,1.208893 -9.313263,-1.176056 -13.143829,-3.203033c-5.859161,-3.187378 -10.675323,-7.816727 -12.729065,-13.279007c-2.822327,-6.12999 -5.033783,-12.427063 -6.60379,-18.798676c-0.157837,-3.181656 3.484924,-5.183273 6.412567,-6.675262c9.363708,-4.228027 20.872467,-4.462692 31.521057,-3.007217c1.765564,0.265854 3.519501,0.598297 5.252869,1.000336l0,-0.000076zm63.179749,-42.211685c10.628998,6.388031 17.31958,17.038193 16.88562,27.510727c-0.237854,7.654861 -3.495575,15.522064 -10.542053,20.599838c-3.197906,2.143738 -7.253571,3.527634 -11.517731,3.651062c1.405426,-4.116913 4.687195,-7.546982 6.226563,-11.628296c2.993561,-6.522232 5.127716,-13.954193 2.084564,-20.943298c-0.842194,-2.341965 -4.778717,-7.661194 -7.49469,-4.126892c-2.014252,3.607086 -2.158112,7.742371 -2.969727,11.64328c-1.646301,9.260818 -3.214935,18.903778 -9.147369,26.967575c-2.509491,3.053116 -6.319794,5.987976 -11.163391,6.137543c-4.527924,-0.592438 -6.993195,-4.355103 -8.871887,-7.376953c-4.558838,-8.397415 -2.28952,-17.886124 2.579926,-25.484314c5.73703,-9.746506 16.736237,-16.394226 23.635925,-25.471542c0.747131,-3.064514 4.544098,-5.377151 7.926514,-2.695496c0.806702,0.381821 1.58963,0.796585 2.367737,1.216675l0,0.000092z" id="path6662" fill="#5fbf00"/>
  <path d="m525.319946,374.041351c2.408752,3.463409 12.349426,0.873383 8.686707,8.164459c0.896362,3.930634 6.429565,8.942657 0.075562,11.635468c-4.746216,1.951843 -1.049622,8.766083 -6.508789,10.055298c-4.140137,2.471161 -5.074036,-2.907867 -2.515259,-5.547882c0.609924,-6.988312 -7.476135,-7.513184 -12.067993,-5.595703c-4.270813,0.500336 -3.498169,5.357819 0.077515,5.716095c4.912964,2.912262 -2.218628,10.097748 -4.257935,4.200134c0.026184,-5.234741 -3.272766,-10.752594 -8.628998,-8.023834c-3.642273,1.525757 -1.773834,5.061157 0.894592,5.842438c3.470245,2.815582 -1.263885,10.321136 -3.907837,5.563721c-0.71936,-4.661591 -0.876678,-12.630768 -7.152222,-11.19046c-4.388123,1.438477 -1.298462,6.17865 0.574188,7.969604c1.403473,5.716644 -7.914764,6.40332 -5.44223,0.181641c2.265839,-6.370361 -2.96521,-9.633026 -8.016846,-9.290619c-8.870056,-0.824554 -17.335083,-3.942047 -25.180847,-8.048431c-7.644562,-4.259583 -14.806732,-10.183136 -19.200623,-18.322327c-1.625183,-5.935242 5.861023,-12.209015 10.461761,-8.540497c5.75354,3.074585 9.000916,9.50766 14.30603,13.247681c9.451721,8.465881 20.348572,15.473419 32.626923,18.276672c6.034912,0.174347 2.419952,-10.915039 8.187744,-10.835022c4.90097,2.029175 0.038513,8.911377 -2.879181,9.828583c0.820618,5.052856 9.642181,2.947876 10.438416,-1.905762c0.192108,-3.855438 2.830597,-10.67981 6.461487,-5.761353c2.511963,5.002258 -6.321014,4.415314 -5.003387,8.822784c3.085052,3.283417 8.46048,-0.534607 11.802948,-2.468689c5.062439,-3.537659 -0.797729,-9.460083 2.348145,-13.646027c1.135864,-0.984619 2.628723,-0.893005 3.820129,-0.327972z" fill="#1a1ae0" id="svg_4"/>
 </g>
</svg>