<?xml version="1.0"?><svg width="640" height="480.00000000000006" xmlns="http://www.w3.org/2000/svg" xmlns:xlink="http://www.w3.org/1999/xlink">
 <title>blue tropical flower</title>
 <defs>
  <linearGradient id="svg_19">
   <stop offset="0.460938" stop-opacity="0.996094" stop-color="#00bfbf"/>
   <stop offset="0.910156" stop-opacity="0.996094" stop-color="#aaffff"/>
  </linearGradient>
  <linearGradient y2="0" x2="1" y1="0" x1="0" id="svg_20">
   <stop offset="0.460938" stop-opacity="0.992188" stop-color="#bc0019"/>
   <stop offset="0.910156" stop-opacity="0.996094" stop-color="#7f0000"/>
  </linearGradient>
 </defs>
 <metadata id="metadata8159">image/svg+xml</metadata>
 <g>
  <title>Layer 1</title>
  <image xlink:href="images/logo.png" id="svg_1" height="34" width="2" y="348" x="40"/>
  <g externalResourcesRequired="false" id="svg_2">
   <path id="svg_18" fill="#bf9e82" d="m181.052841,394.676636c-13.236267,-1.259827 -24.783966,-9.54776 -29.420914,-20.099274c-3.348251,-6.718567 -6.345963,-14.036652 -5.32341,-21.435028c0.673401,-1.775604 1.251541,-5.700714 2.978256,-2.202881c8.187332,10.014832 18.640564,18.999298 31.550262,24.482544c7.857468,3.413147 17.103897,3.995209 25.630554,2.34668c3.674805,-0.825104 10.345337,-2.787262 7.820221,-7.037231c-2.321869,-3.225677 -7.323196,-3.460022 -11.203568,-4.479126c-11.097137,-1.952087 -23.366409,-1.350555 -33.061493,-7.127045c-4.896164,-2.811554 -8.744049,-6.679535 -12.924683,-10.183167c7.655502,-0.273224 16.220291,-0.916779 21.764679,-6.019379c3.214645,-2.668732 4.993698,-6.310974 8.148071,-9.023285c5.56955,-2.395081 11.937073,0.006012 17.111191,2.078461c7.929382,3.286743 14.791656,8.683716 18.316284,15.664063c4.6073,7.746216 8.473206,15.819641 11.544098,24.101349c0.744202,4.241119 -3.502625,7.54071 -6.936188,10.03598c-11.073822,7.251373 -25.535492,9.508148 -39.203033,9.352692c-2.270218,-0.058563 -4.537384,-0.208588 -6.790329,-0.455353zm-72.374115,67.282135c-14.488556,-6.775055 -24.744965,-19.931732 -25.9935,-34.052429c-1.012611,-10.307983 1.743393,-21.410522 9.752045,-29.410675c3.662033,-3.4151 8.535172,-5.95578 13.8871,-6.840851c-1.064987,5.75946 -4.61235,10.914093 -5.852249,16.648438c-2.654022,9.253693 -4.069,19.582794 0.963989,28.444061c1.462448,2.99939 7.334686,9.470032 10.151108,4.270996c1.919632,-5.178253 1.391968,-10.749359 1.745834,-16.118927c0.486832,-12.69986 0.810516,-25.89917 6.903,-37.716675c2.638901,-4.518768 6.937042,-9.098419 13.014862,-10.116486c5.806625,0.030579 9.558411,4.661804 12.443619,8.398132c7.184082,10.494568 5.951355,23.605377 1.118057,34.618927c-5.557907,14.041626 -18.278168,24.814636 -25.415771,38.154846c-0.416183,4.236725 -4.80426,7.979492 -9.526215,4.953094c-1.08194,-0.375946 -2.139557,-0.800262 -3.191879,-1.232452z" stroke="#7f3f00" stroke-width="0"/>
   <path id="svg_3" fill="#c1a081" d="m513.520203,287.383392c-35.145386,7.064026 -72.318024,21.522339 -108.386108,9.897614c-8.754395,1.824097 -38.44519,-6.058777 -17.864563,-11.70752c13.321564,-4.478363 45.206604,-2.039612 47.564117,-4.631561c-15.020355,-3.493622 -41.244629,1.094238 -49.649323,-2.033722c39.396942,-19.928986 92.920013,-16.163666 128.335876,8.475189zm10.095276,-55.889862c-20.910736,14.845383 -44.881897,33.962433 -74.439575,29.338013c-12.872314,-2.689453 -38.802826,5.85022 -44.063385,-2.333466c18.337158,-9.991623 40.511566,-11.708878 60.717407,-17.597092c-17.28299,-5.195511 -34.365997,4.212433 -51.572693,4.160019c11.499908,-10.678024 39.046204,-17.152237 59.296082,-18.219131c16.833252,-0.963394 33.860474,0.640411 50.061615,4.651596m8.718262,-43.782928c-20.826447,12.902847 -38.765656,34.389114 -67.116089,33.812836c-10.812042,-3.039764 -34.2771,11.191833 -36.906494,0.851837c16.940002,-10.000504 36.660187,-15.818451 56.41925,-20.290939c-20.48407,1.387161 -40.615143,6.161728 -59.112274,13.782501c27.267517,-23.633942 68.68161,-33.936844 106.715363,-28.156235m-111.035675,-99.740761c19.759064,59.208824 5.163635,125.109901 -33.751678,176.353279c-24.479553,27.648438 -59.160858,47.290039 -95.447266,62.016968c1.488464,-15.962189 23.317108,-17.133331 36.343811,-23.437439c13.860474,-9.56604 27.693146,-19.716064 39.500092,-31.3703c38.452057,-39.108719 57.452972,-90.677628 58.514648,-141.325211c-0.060181,-14.501282 -1.962799,-29.009827 -5.886932,-43.123665l0.422058,0.150116l0.305267,0.736252zm37.366577,255.550026c-36.289063,-2.661194 -75.305817,0.259705 -108.092651,-15.837952c-19.07843,5.799835 -19.439392,-22.569153 -0.092041,-13.607086c21.853302,-1.031525 43.573944,3.403473 63.805969,10.181488c-21.734619,-12.688232 -49.10379,-15.170044 -74.766754,-14.019012c37.17926,-13.956543 87.734009,-7.250946 110.818176,23.263367c2.913361,3.254364 5.658447,6.61618 8.327301,10.019196zm-150.295502,-199.889145c38.058197,0.733414 78.841919,22.013031 85.847321,55.745926c8.261993,6.830002 -5.195251,26.974686 -7.766541,9.320724c-8.546997,-15.465271 -20.667816,-30.137314 -37.881256,-39.339035c18.548035,20.26123 37.28714,44.143448 34.420898,71.107697c-6.231018,-25.317856 -31.445068,-41.652039 -50.545227,-59.897278c-10.306793,-11.078644 -18.715515,-23.523209 -24.075623,-36.938034m1.939056,39.105789c33.755554,13.076797 62.244415,43.963028 55.63678,76.954346c-14.488983,-6.745102 -6.073334,-36.329529 -23.360077,-34.892365c6.365936,13.773239 10.320557,28.574554 7.967682,43.506256c-0.72821,7.17746 -7.4758,25.818024 -7.519958,9.44754c-6.47644,-32.796768 -34.858734,-60.696869 -32.724884,-95.015839m-30.28125,26.580078c27.259094,14.148727 54.098816,37.882843 51.284241,67.184418c5.17984,10.075623 -18.936035,27.53598 -13.024384,8.255066c2.380554,-14.369568 -7.260437,-38.610748 -13.477356,-44.039658c9.773895,19.144608 8.404388,40.845047 3.592499,60.870987c0.886475,-31.164215 -35.569122,-54.449127 -28.989838,-86.303787l0.244843,-2.988388l0.373169,-2.978699m266.193909,-54.1539c-26.266846,12.889587 -51.621002,29.481567 -82.466248,33.103134c-6.757813,5.976852 -32.02948,5.515182 -12.916656,-3.139252c9.262665,-7.135864 38.775787,-15.447739 37.254852,-19.208374c-16.532837,3.402939 -31.633484,10.375458 -47.850769,14.602371c24.469208,-25.387253 69.530609,-42.725388 105.978821,-25.35788zm-19.13385,-45.881302c-22.481659,25.374237 -55.255707,41.66449 -86.56012,57.909592c11.585358,-17.695816 31.51123,-29.52327 49.991943,-41.525566c-15.851563,-0.280869 -31.712067,27.547905 -42.277466,17.62812c13.425598,-25.082497 48.695557,-34.906708 78.845642,-34.012146zm-6.00885,-48.035c-2.56189,23.471287 -22.567444,43.44817 -47.356293,52.688175c-11.082184,5.18515 -25.226471,21.567436 -31.325409,23.001961c7.454071,-17.707565 23.286346,-31.304733 37.03653,-45.530785c-17.0672,6.410271 -24.162811,23.526253 -41.371552,29.757896c4.399475,-34.188492 43.484497,-60.621544 83.016724,-59.917248zm-44.724609,-34.305317c0.373199,20.416004 -7.32547,41.879837 -25.26297,56.007942c-0.265839,10.12104 -19.054443,14.971863 -9.635254,1.07235c2.911682,-5.586029 10.54007,-19.548828 5.7229,-20.153069c0.463806,7.436615 -16.977417,24.028511 -12.866821,7.07135c5.444672,-19.062931 21.802917,-35.1077 42.042145,-43.998573zm-80.821381,-24.10179c22.059601,6.690039 41.799347,26.311755 36.395508,47.26602c5.962616,7.864399 -14.10144,16.384285 -7.681091,4.093418c2.836853,-7.420963 -14.493317,-32.832279 -6.712372,-13.027733c5.338531,6.007641 2.235291,32.642597 -6.601318,17.571926c-9.123108,-17.501301 -18.629578,-36.285755 -15.400726,-55.903632zm-73.18399,110.059569c42.541779,-2.122765 83.334534,28.037888 87.105316,64.263657c-8.600342,-11.269806 -22.517944,-32.571182 -31.702332,-34.955048c14.827087,15.202332 24.239624,33.775757 29.791931,52.863037c-16.309113,-24.133102 -42.615326,-41.350113 -66.798492,-59.285522c-6.941803,-7.129852 -12.614105,-15.063019 -18.396423,-22.886124zm96.966431,25.683029c-13.773163,-14.204529 -26.696106,-30.399727 -46.960938,-38.319855c20.178528,14.8815 35.993561,34.496414 43.084259,56.567368c-17.05423,-21.124146 -42.23175,-35.734993 -64.289948,-52.593315c-15.726135,-8.521439 -11.372864,-33.196312 9.927612,-22.683235c29.057617,9.225426 48.490387,32.792122 58.239014,57.029037zm-74.405975,-96.457428c38.086884,0.729176 72.227386,29.817963 72.757935,62.413628c-8.096252,-6.275291 -19.135132,-27.83168 -25.313171,-25.284225c4.891266,6.564072 21.718781,24.367119 14.790894,26.605164c-19.207611,-15.901367 -48.079529,-26.368965 -55.220306,-50.389297c-2.355377,-4.440037 -5.35611,-8.653584 -7.01535,-13.345268z" stroke="#7f3f00" stroke-width="0"/>
   <g id="svg_4" fill="#cdde87">
    <g id="svg_5" fill="#cdde87">
     <g id="svg_6" fill="#cdde87">
      <g id="svg_7" fill="#cdde87">
       <path id="svg_8" fill="#ceb9a5" d="m448.398285,405.872498c3.376373,-0.208862 5.939545,-3.152496 7.031067,-8.077545c0.518524,-2.333557 0.749847,-4.640686 0.749847,-6.898834c0,-17.191589 -13.449371,-31.533905 -16.576843,-33.517761c0.004547,0.007507 0.022156,0.044067 0.022156,0.044067c2.629486,4.167694 3.559021,8.018341 3.559021,11.674072c0,4.504852 -1.412659,8.710327 -2.79895,12.840302c-1.250641,3.722382 -2.454193,7.305084 -2.454193,10.856445c0,1.715851 0.281464,3.424225 0.973755,5.138824c2.004913,4.975372 5.818726,8.166901 9.494141,7.94043m58.856049,14.908447c2.021027,-0.294403 3.338043,-2.612854 3.277588,-5.767914l0,-0.001221c-0.453705,-23.699219 -9.141998,-36.119385 -12.254669,-37.962311c-0.378571,-0.223938 -0.524414,-0.195007 -0.52594,-0.195007c-0.073608,0.060455 -0.206177,0.622711 0.592255,2.241791c4.448639,9.036133 3.00061,15.677002 1.723511,21.536743c-0.950165,4.355103 -1.847351,8.469971 -0.113525,12.910706c2.25528,5.798004 5.342987,7.521484 7.300781,7.237213m-4.04364,-166.849426c11.937927,18.694977 15.653076,31.316345 11.358948,38.587555c-6.300446,10.647552 -22.05957,18.137604 -34.720795,24.155792c-11.526978,5.479828 -21.482178,10.21109 -20.36554,15.308472c0.509674,2.323578 2.256744,3.972748 4.920197,4.644531c4.790405,1.207672 11.092377,-0.900757 16.050842,-5.369141l2.596954,-2.523499c11.933655,-11.911865 43.631622,-43.554016 103.760406,-3.718567c0.107544,0.070374 0.160522,0.186188 0.138367,0.300659c-2.841492,14.318359 -19.029358,21.941742 -45.584778,21.467468c-12.419739,-0.21759 -20.017883,3.251953 -20.188782,6.731506c-0.136963,2.791473 4.786011,6.326447 19.113342,7.101379c7.191711,0.388733 14.733948,-0.498169 22.718079,-1.437866c24.174927,-2.843079 49.173401,-5.782959 68.057007,25.982452c0.055969,0.091797 0.052979,0.202545 -0.005981,0.294342c-0.113342,0.174866 -11.712463,17.3703 -44.220764,2.9664c-14.809021,-6.562958 -19.178162,-5.932678 -20.464172,-4.974121c-1.107788,0.826477 -0.630554,2.337372 -0.374207,2.9487c1.748596,4.162689 8.97406,6.964233 17.341309,10.207336c13.219543,5.125031 29.67395,11.502991 35.6474,26.654236c6.428589,16.312347 -5.568359,34.535492 -12.385742,40.815338c-0.101746,0.094421 -0.259338,0.125793 -0.399353,0.080475c-2.228821,-0.71817 -4.920044,-1.259247 -8.03717,-1.88562c-8.653015,-1.738617 -20.503967,-4.119934 -31.365051,-12.724518c-11.466553,-9.081421 -13.852966,-18.408173 -16.379456,-28.282104c-2.174133,-8.498932 -4.422119,-17.287262 -12.851257,-26.289429c-6.488892,-6.921478 -10.791809,-5.392975 -11.95697,-4.760223c-2.230347,1.212677 -2.932983,3.967682 -1.599915,6.271057c18.70697,32.359222 10.684509,39.059296 -1.459778,49.19986c-4.09668,3.420593 -8.739807,7.298859 -12.898315,12.723297c-0.057587,0.071747 -0.14743,0.120789 -0.247559,0.135895c-0.10022,0.015106 -0.210663,-0.007507 -0.287262,-0.060425l-4.766937,-3.102203c-10.83313,-6.985565 -21.066742,-13.58374 -25.6362,-25.621429c-3.070068,-8.083771 0.779205,-17.536346 4.501678,-26.674286c2.675171,-6.56424 5.200073,-12.76358 5.08963,-18.149017c-0.172394,-8.277588 -10.724121,-19.492523 -18.920441,-22.528076c-1.93576,-0.715759 -4.615234,-1.283081 -6.39032,0.085632c-2.470398,1.903259 -5.228058,7.136505 4.065735,20.808319c16.756439,24.655243 0.257813,43.697479 -10.659363,56.299988c-6.460968,7.454803 -11.127686,12.842773 -7.275543,16.404144c0.116394,0.106934 0.129669,0.267914 0.03537,0.388702c-0.095825,0.120728 -0.275482,0.169861 -0.436096,0.118286c-0.385895,-0.124573 -38.566986,-12.666748 -38.779205,-34.050018c-0.125183,-12.718231 7.642456,-25.325775 13.885437,-35.455017c4.204193,-6.823364 7.835297,-12.71579 7.536346,-16.41684c-0.431641,-5.434479 -1.792786,-8.681366 -4.160034,-9.926727c-2.709076,-1.425293 -6.505219,-0.061676 -10.176086,1.259277c-2.432098,0.873016 -4.730225,1.699493 -6.785095,1.792603c-2.158112,0.100586 -3.896362,-1.503296 -4.230743,-3.901001c-0.390411,-2.812897 1.316895,-6.174255 5.989563,-6.907654c0,-0.001221 6.329956,-1.205078 6.329956,-1.205078c16.619446,-3.431824 39.381622,-8.131714 99.771149,22.446198c41.451416,20.989502 66.498413,40.527313 74.445801,58.069946c0.284363,0.629028 0.547974,1.200104 0.699768,1.329712c0.00293,-0.049042 0.076599,-0.153442 0.128113,-0.37735c0.001465,-0.011383 0.022095,-0.117035 0.022095,-0.325897c0,-2.220306 -2.177185,-16.094696 -49.771484,-51.661682c-1.78241,-1.331024 -2.679565,-2.484589 -2.679565,-3.440674c0,-0.231415 0.05304,-0.451599 0.157715,-0.65918c0.92804,-1.839111 5.848145,-2.115906 9.779846,-1.793823l4.643188,0.572357c8.750183,1.166138 26.959106,3.595337 31.687744,0.425201c0.665833,-0.445343 1.019287,-0.972443 1.084167,-1.611511c0.063293,-0.642792 -0.172363,-1.1875 -0.720459,-1.664307c-3.616272,-3.146179 -19.427063,-2.265594 -30.970215,-1.622803l-10.140747,0.444061c-9.65033,0.10318 -47.498505,-2.719757 -56.363586,-18.398071c-1.325684,-2.344818 -1.40976,-4.501068 -0.250366,-6.408173c3.891846,-6.40564 21.115326,-8.836121 33.69104,-10.611145c5.482971,-0.773651 10.217468,-1.44165 12.338623,-2.241699c7.30957,-2.24173 18.113281,-6.408203 18.014526,-8.727905c-0.010315,-0.257904 -0.388916,-0.483093 -0.702576,-0.626526c-5.142578,-2.333557 -31.125122,-1.377472 -41.928711,4.377869c0,0.001221 -6.151733,3.679565 -6.151733,3.679565c-11.362,7.132782 -26.922211,16.902313 -59.863586,12.366058l-2.993317,-0.285583c-3.902161,-0.304413 -8.327454,-0.64917 -9.09787,-3.039307c-0.757111,-2.347412 1.271271,-7.351654 27.511597,-23.638855c8.568909,-5.321259 23.233582,-20.937927 23.132019,-27.538574c-0.017792,-1.089447 -0.424286,-1.851746 -1.243408,-2.332336c-0.844116,-0.494354 -2.029816,-0.597504 -3.52356,-0.305634c-7.823639,1.527191 -23.647552,14.158661 -35.570801,31.903748c-13.863342,20.633545 -31.290009,30.359009 -42.4133,30.844635c-1.448151,0.064117 -2.280426,-0.192474 -2.544159,-0.782471c-0.823395,-1.840454 5.079254,-6.096222 12.882202,-11.469055l4.53421,-3.200348c9.445435,-7.223358 11.879059,-14.754944 16.296844,-28.42926l0.296143,-0.912079c11.836304,-36.563324 20.430389,-49.597382 70.338745,-52.289474c0.141357,-0.007523 0.276917,0.055359 0.346252,0.163528" stroke="#7f3f00" stroke-width="0"/>
      </g>
     </g>
    </g>
   </g>
   <g id="svg_9" fill="#89a02c">
    <g id="svg_10" fill="#89a02c">
     <g id="svg_11" fill="#89a02c">
      <g id="svg_12" fill="#89a02c">
       <path id="svg_13" fill="#dbcaba" d="m328.585052,147.26329c-6.353455,-4.346359 -13.556854,-9.272659 -23.598846,-10.384674c-1.84729,-0.205093 -2.013794,-0.571182 -2.015198,-0.574951l0,-0.003754c0,-0.017593 0.02948,-0.08931 0.195892,-0.197495c2.194916,-1.446701 19.113434,-3.029251 42.702057,8.515289c3.637054,1.781342 5.703857,5.223145 4.606354,7.671234c-0.926483,2.066895 -3.874207,2.811584 -8.085815,2.04425c-4.732971,-0.865494 -9.140594,-3.879623 -13.804443,-7.069901m-57.204559,19.653519c6.267914,-0.444092 22.246643,-0.439026 35.218781,9.18074c4.407379,3.270737 6.17807,6.716415 4.735901,9.219803c-1.3862,2.402756 -5.522675,3.39534 -10.544373,2.528564c-5.642029,-0.972366 -9.838867,-4.670959 -14.283112,-8.585739c-6.014679,-5.298676 -12.238464,-10.772125 -22.992096,-11.02626c0.989899,-0.382431 3.609161,-1.015198 7.864899,-1.317108m-20.368423,40.67067c-2.33345,-1.630295 -4.176346,-2.919662 -4.431183,-4.4897c-0.048492,-0.286835 0.070709,-0.508224 0.375687,-0.695633c1.632233,-1.010132 7.244614,-0.479309 12.998535,1.922104c4.57843,1.91095 15.283386,7.666183 15.775482,19.802048c0.067657,1.739761 -2.984528,5.08609 -6.232727,5.442047c-3.08609,0.337143 -5.484375,-2.133545 -6.754089,-6.959152c-2.196411,-8.355545 -7.707321,-12.208755 -11.731705,-15.021713m-68.319244,-71.715256l-0.00882,0l0.00882,0zm127.301804,-54.133759c-2.038757,6.093689 -3.965485,11.851532 -6.945618,16.756401c-5.659668,9.310379 -10.616608,11.37603 -13.138489,10.31675c-3.455902,-1.451714 -4.139404,-8.60836 0.780701,-17.640694c10.115814,-18.584267 8.944672,-33.636116 -3.298157,-42.380367c-0.110565,-0.079247 -0.263763,-0.095592 -0.393402,-0.042763c-58.954712,23.806156 -41.134613,61.175938 -34.424759,75.243961l1.39505,3.026733c2.804825,6.737801 1.420029,11.984825 -1.196182,14.197655c-1.551132,1.309586 -3.514771,1.642899 -5.681656,0.963608c-5.141037,-1.614029 -5.905655,-10.8992 -6.788025,-21.649971c-0.969254,-11.798622 -2.178696,-26.481857 -9.762238,-35.959511c-5.177856,-6.469856 -18.254623,-9.792191 -39.979721,-10.154518c-0.15625,-0.002533 -0.299011,0.080544 -0.352081,0.206306c-15.695847,36.601097 -6.733566,48.827553 22.880081,74.436386c10.87001,9.397141 10.990753,9.733047 14.098953,18.33136l0.648163,1.783844c1.003235,2.752472 0.705643,5.04071 -0.835251,6.44342c-1.37294,1.24794 -3.685608,1.718369 -6.039658,1.227722c-2.960922,-0.616394 -5.231003,-2.50206 -6.073547,-5.044449c-11.631638,-35.096634 -30.400284,-35.928116 -32.106079,-35.929413c-10.542984,-6.138977 -34.84166,2.339844 -39.856079,5.628235c-0.137024,0.091827 -0.182678,0.252838 -0.106079,0.387436c1.652802,2.918533 9.784332,27.098328 9.865326,27.34111c8.731033,20.317856 16.687225,24.203735 26.978226,27.476959c7.178452,2.2845 13.528992,2.318481 21.924118,0.114532c12.217773,-3.202881 17.423782,1.299469 20.221161,3.717285c1.148972,0.993851 1.979828,1.712173 2.760529,1.143616c0.279968,-0.203888 0.579025,-0.605225 0.424286,-1.363724c-0.548004,-2.698334 -6.547913,-8.371872 -17.684509,-11.975983c-20.250641,-6.562973 -32.645157,-20.418427 -35.700424,-27.6091c-0.617233,-1.453003 -0.646729,-2.259354 -0.46843,-2.531097c0.517075,-0.784927 1.545303,-1.211456 3.058136,-1.265503c7.813217,-0.280563 27.019547,9.777039 40.543991,26.796356c4.332336,5.44841 8.499695,7.917816 12.388672,7.337845c6.3638,-0.949814 9.405731,-9.533051 10.186523,-12.140869c2.596985,-8.673752 -0.727753,-24.573502 -17.845093,-43.18663c-11.716965,-12.748489 -15.022614,-27.171257 -13.135574,-35.177116c0.568573,-2.411552 1.583496,-4.073402 2.857712,-4.678444c0.559799,-0.265434 1.296341,-0.19503 2.187607,0.212608c7.419968,3.388985 21.666306,27.347321 22.473541,35.866447c2.296539,24.308105 11.23526,28.104706 13.920746,28.689636c2.526291,0.549759 4.989304,-0.27803 6.432983,-2.156189c17.64917,-23.042557 12.294464,-40.24176 8.751648,-51.621468c-0.941284,-3.024193 -1.754425,-5.634529 -2.071198,-7.964302c-1.34198,-9.902901 8.521912,-23.718094 12.967621,-26.274384c0.665894,-0.382385 1.199249,-0.515747 1.499725,-0.374847c2.183014,1.022713 2.112366,10.647583 1.533508,16.868332c-0.030914,1.899574 -1.138824,5.569122 -2.418854,9.817352c-2.972717,9.86013 -7.045868,23.364616 -2.286224,29.026779c1.346375,1.601425 3.333588,2.49585 5.905579,2.656876c17.492981,1.09697 31.457916,-24.135727 35.321869,-31.896255l1.467102,-3.00032c4.003937,-8.241096 11.454834,-23.580948 16.790405,-24.890541c0.708588,-0.173599 1.337585,-0.084305 1.926849,0.273033c4.905365,2.98143 -6.119324,17.546402 -10.828827,23.765862l-2.230133,3.027954c-1.589478,2.411545 -3.352722,6.547836 -1.707367,8.057442c0.85141,0.779938 2.396698,0.724586 4.597443,-0.161018c49.711182,-20.015831 69.624451,-12.828941 71.730988,-11.943336c0.920685,0.386192 1.231415,0.651627 1.355133,0.800056c-0.35495,0.017654 -1.081207,-0.045303 -1.872284,-0.114494c-23.358765,-2.097046 -52.661591,6.654808 -87.093689,26.008965c-51.278442,28.824211 -70.114899,73.112907 -76.780685,96.946693c-0.951584,3.380234 1.184418,5.381699 2.147781,6.084961c1.520233,1.112106 3.442673,1.542206 4.780182,1.07045c0.880951,-0.309402 1.411255,-0.982391 1.498199,-1.891953c0.078033,-0.797546 0.749771,-2.62793 2.337769,-3.199081c1.25209,-0.450333 2.82103,-0.021378 4.652039,1.274399c2.205261,1.556076 1.808945,4.808044 1.309586,8.926605c-0.659988,5.435806 -1.480499,12.199966 3.445526,18.24469c6.779251,8.325317 15.759171,13.30188 26.69249,14.790039c14.734009,2.005249 28.370392,-3.069366 32.665924,-5.840729c0.094238,-0.060425 0.153198,-0.15097 0.153198,-0.250366c-0.001434,-0.099426 -0.051666,-0.18869 -0.145874,-0.247772l-1.0401,-0.650436c-3.887451,-2.358719 -11.124725,-6.751587 -11.238159,-26.576263c-0.119293,-21.48262 -20.674835,-36.053894 -31.201538,-37.518173c-5.257507,-0.732193 -8.57785,-2.114761 -10.151062,-4.224396c-1.212372,-1.626541 -1.383286,-3.683365 -0.524567,-6.28862c0.580475,-1.763763 1.754517,-2.950043 3.486938,-3.524872c3.08609,-1.022736 7.910492,-0.049088 12.913116,2.60524c3.267365,1.732285 7.173981,6.729004 11.697845,12.515686c7.324158,9.367035 16.436737,21.024796 28.676697,27.124741c19.958954,9.950745 45.574554,-11.207321 45.830963,-11.42244c0.119202,-0.09938 0.145813,-0.255417 0.063324,-0.378693c-0.082581,-0.124557 -0.251984,-0.186127 -0.413971,-0.14975c-4.675629,1.040421 -7.973846,-4.804184 -12.540405,-12.89183c-7.716064,-13.669342 -19.377106,-34.325439 -48.397095,-34.083893c-16.050842,0.134598 -19.907349,-4.289703 -20.777954,-6.939041c-0.685028,-2.092072 1.154877,-3.851974 2.818054,-4.959c6.120667,-4.075882 19.593536,-6.032043 27.143158,-2.347382c5.008453,2.44426 10.724091,7.829712 16.777039,13.53212c8.708954,8.205856 17.71405,16.692291 26.386078,18.34024c12.877869,2.449356 22.754944,-1.699539 33.209503,-6.088684l4.597534,-1.905869c0.088226,-0.037704 0.159088,-0.105652 0.191467,-0.18866c0.02948,-0.081757 0.020721,-0.171082 -0.026642,-0.246521c-3.159607,-4.938904 -5.244049,-9.671478 -7.259369,-14.248032c-6.63324,-15.06813 -11.873016,-26.969955 -50.03949,-29.055717c-2.751709,-0.150955 -5.108734,-2.110886 -5.256012,-4.370239c-0.185577,-2.844292 3.084656,-5.054611 8.747253,-5.910034c11.395935,-1.719658 21.963837,1.17247 32.182709,3.966454c12.091187,3.308525 23.511963,6.433365 36.165985,2.585152c11.968903,-3.639359 18.510773,-10.918098 23.286682,-16.230507c1.717682,-1.910942 3.200928,-3.56144 4.675476,-4.796776c0.104675,-0.086761 0.138519,-0.217606 0.08847,-0.333313c-3.184753,-7.435959 -17.537201,-28.859535 -35.581177,-32.10009c-16.287994,-2.922318 -29.970062,6.663551 -40.962311,14.367485c-6.938232,4.860901 -12.929352,9.058754 -17.398712,8.339172c-0.670288,-0.108192 -2.26709,-0.490547 -2.602997,-1.710846c-0.458069,-1.671852 1.265411,-5.122559 12.074982,-12.075424c25.206085,-16.211712 13.892853,-32.053482 13.397736,-32.718952c-0.063293,-0.086849 -0.172272,-0.140903 -0.291687,-0.145962c-36.439758,-1.607719 -42.833069,17.497341 -49.018646,35.974632" stroke="#7f3f00" stroke-width="0"/>
      </g>
     </g>
    </g>
   </g>
   <path id="svg_14" fill="#00cbff" d="m151.358597,370.75769c-7.501373,-5.718994 -7.286453,-21.508514 -21.402054,-15.879822c-13.628448,-1.426788 -16.887695,-17.012756 -10.453148,-26.25827c5.504211,-10.252563 16.3451,-17.356567 20.905357,-28.11087c-10.730652,-5.322021 -16.167114,8.218445 -19.47261,15.150269c-5.216278,9.98941 -10.392899,22.097534 -22.4356,26.584686c-13.909683,3.952484 -8.867355,-17.091766 -20.128464,-13.278259c-11.360626,3.600677 -18.272663,-7.756409 -8.671379,-14.065887c0.19931,-11.257874 1.582092,-23.261597 14.620415,-28.674316c16.108551,-9.990967 37.564713,-12.605682 55.92585,-6.534485c-8.630142,7.650299 -23.731911,3.138275 -32.532127,11.355469c-9.026154,8.669617 5.603416,17.502838 13.790718,9.825836c8.776138,-2.096985 24.115738,-17.828796 29.186844,-5.933685c-4.405914,7.420044 -16.358139,23.717072 1.225418,24.401337c11.108917,-3.595428 12.341354,16.510162 21.735031,6.689209c5.818619,-9.684723 -4.652023,-18.476593 -5.080383,-28.25c2.769852,-11.542999 6.382584,5.547394 8.627563,9.618347c7.017975,13.961548 22.637726,25.678741 20.820007,42.383514c-4.981354,9.555023 -17.757797,12.846191 -23.622528,21.988159c-6.541489,4.683044 -17.571365,5.611877 -23.03891,-1.01123zm-9.493912,-117.890579c-21.719734,-2.661331 -45.553711,-12.617584 -53.094559,-32.762558c-5.293449,-11.186005 13.170609,-14.928818 7.025421,-24.920959c-0.710846,-12.463104 17.505814,-20.550964 27.347046,-11.417999c8.221649,7.852921 18.628006,-6.292831 26.038727,4.559906c9.119797,8.704956 5.400833,20.634537 4.180832,31.105179c-0.325851,9.646271 2.114548,19.210434 5.847549,28.190918c-7.185516,2.549484 -9.516815,-13.328873 -14.353394,-17.794617c-4.002167,-7.233109 -9.5914,-19.37442 -20.813408,-15.730042c-7.541885,7.375183 3.259933,17.041565 6.775581,24.255188c2.886383,4.359299 22.222839,13.436523 11.046204,14.514984l0,0zm78.343399,-12.359558c-13.959534,6.062347 -25.365692,16.00621 -34.998444,26.839584c10.463455,3.938324 17.856552,-12.276779 27.836548,-5.95343c2.3004,5.140961 -3.290878,11.615753 6.905304,10.514404c13.050934,-4.161041 19.384689,14.211945 5.298325,16.035339c-7.356583,1.927856 -21.301208,-7.827087 -15.318817,4.002563c3.939301,13.154236 -18.148514,10.310638 -20.736542,0.604614c-2.343185,-5.398895 -10.948288,-12.824341 -11.153732,-2.445282c1.04216,9.740936 6.783615,18.855957 13.179825,26.591034c7.653503,8.194336 18.221085,16.287842 30.630875,16.233643c13.287888,-1.13446 22.086655,-13.033447 22.73526,-24.43161c5.258209,-9.062042 20.171249,-7.541779 25.292618,-17.303253c7.832947,-9.786926 7.142883,-26.39978 -5.51178,-32.639984c-7.989838,-7.879715 -11.613174,-22.81665 -26.656662,-21.025635c-5.987534,-0.178833 -11.928146,1.066956 -17.502777,2.978012zm-5.597702,-61.701218c-10.069611,1.11496 -11.895386,20.47493 -21.02475,9.076965c-10.904892,-5.717087 -20.698486,4.808243 -25.761108,12.500381c-10.103836,16.928879 -6.838028,37.575485 0.280899,54.854538c5.787964,4.623993 -1.210693,-8.72287 0.797333,-11.570755c0.988907,-7.009232 2.185562,-20.93222 11.380219,-21.608475c2.458313,5.82486 8.956161,10.374557 11.323105,1.366608c6.490112,-9.630768 23.390274,-0.110138 11.29863,7.886032c-8.521027,8.776047 -21.300491,17.465012 -21.916443,29.869247c8.09996,-1.274872 13.903381,-13.367325 23.180527,-16.568542c10.519882,-6.761246 23.147598,-10.006775 34.040894,-16.032043c11.428635,-6.674622 12.389465,-22.367706 0.028198,-27.712448c-0.091049,-10.770859 -3.611847,-25.70372 -19.491638,-22.987595l-2.102646,0.360886l-2.033218,0.565201l0,0z" stroke="#7f3f00" stroke-width="0"/>
   <path id="svg_15" fill="url(#svg_20)" d="m49.774982,286.753418c-4.380718,-2.978668 -16.797443,2.043213 -14.347561,-6.305878c-2.516193,-3.817657 -11.591991,-7.641113 -4.003475,-11.914398c5.688404,-3.131256 -1.537109,-9.239868 5.32616,-11.861084c4.704491,-3.519592 7.756542,1.77475 5.222366,5.091156c1.528625,7.31192 12.511242,5.926117 18.005131,2.866852c5.539936,-1.529358 2.878139,-6.327301 -2.02076,-5.843933c-7.542568,-1.817261 -0.421505,-10.883484 4.281902,-5.320465c1.720528,5.374725 7.980171,10.248505 14.223419,6.175629c4.35598,-2.431549 0.672943,-5.612854 -3.155083,-5.7789c-5.582214,-2.061798 -1.772591,-10.885529 3.356628,-6.635803c2.524673,4.609589 5.40773,12.744934 13.311661,9.774109c5.382103,-2.519318 -0.336914,-6.645355 -3.440193,-8.036377c-3.792946,-5.528748 8.430138,-8.450119 7.212257,-1.481201c-0.891624,7.072144 7.193703,9.173218 13.830246,7.619873c12.130875,-1.264893 24.489624,-0.082092 36.352509,2.262177c11.644913,2.549164 23.203812,6.919556 31.805588,14.220917c4.162643,5.700256 -3.738266,13.915588 -11.117111,11.248322c-8.720749,-1.784058 -15.218185,-7.608368 -23.562607,-10.181671c-15.471069,-6.432953 -32.384338,-11.026428 -49.734047,-10.97937c-8.123894,1.257111 0.426682,11.769653 -7.30851,13.059784c-7.230545,-0.914642 -3.040558,-9.129669 0.551247,-10.764343c-2.791389,-4.986816 -13.874977,-0.72879 -13.311356,4.43811c1.036339,3.999634 -0.200958,11.626282 -6.703148,7.446198c-5.034557,-4.532318 6.966843,-6.032257 3.727898,-10.238861c-5.224297,-2.632965 -11.127914,2.561768 -14.946163,5.340698c-5.579323,4.832672 4.238899,9.51178 1.438435,14.553406c-1.18782,1.279846 -3.213612,1.540924 -4.995434,1.245056z" stroke="#7f3f00" stroke-width="0"/>
   <path id="svg_16" fill="#2eb8d1" d="m217.703857,367.467255c4.343475,-5.878082 14.692673,-4.64505 18.941635,-10.611206c-2.959839,-6.492889 -0.774368,-15.963837 7.881927,-18.231415c11.745041,-3.589142 23.935745,2.244049 32.342789,8.994293c5.800873,3.919739 11.610138,8.034485 18.523438,10.452911c5.318512,-5.414703 -2.696289,-11.568695 -8.548401,-13.319611c-12.734802,-5.688324 -27.924225,-9.377838 -36.462585,-19.998444c-3.754623,-5.422974 1.512268,-15.036804 9.640289,-12.903076c7.927246,0.239166 5.102173,-8.406219 2.734314,-11.773132c0.182983,-7.187042 11.399658,-9.567444 15.183533,-3.227722c7.113251,3.939758 16.844757,-1.674805 23.332397,3.735016c17.625916,12.511841 24.305908,34.255188 18.836884,52.952362c-0.607635,3.101746 -2.339417,7.727905 -4.705536,2.677155c-2.552917,-4.981689 -0.285004,-10.937408 -3.844421,-15.662292c-2.263916,-5.273926 -4.906708,-12.376373 -12.384369,-13.408142c-6.70517,-0.519592 -8.327271,7.119446 -6.099213,11.332092c2.681366,5.523163 6.874298,10.430725 9.796326,15.88208c1.074341,3.692505 7.348633,8.55069 3.004608,11.685303c-5.232086,2.720673 -10.717865,-1.227661 -14.86499,-3.766235c-4.559814,-4.261627 -15.260345,-3.71167 -16.647125,2.700684c2.239594,5.137085 0.547089,10.870361 -6.503479,12.382507c-9.067291,2.675385 -1.501007,12.952545 6.193909,10.674408c9.67984,-1.961243 19.068665,-5.836182 29.209534,-5.848358c4.329926,5.903168 -9.406464,3.676178 -12.954407,6.393646c-15.411682,5.727631 -27.636536,17.758179 -45.077454,19.239075c-8.288162,0.759552 -13.31366,-6.085632 -17.012955,-11.337463c-4.517532,-5.132263 -13.149811,-7.678894 -14.769485,-14.531616c-2.044922,-4.928162 -1.022675,-11.298737 4.252838,-14.482819zm130.377747,-8.14621c2.503967,-15.370972 10.006409,-31.055756 24.811279,-40.704681c6.48941,-3.999939 14.899292,-6.328979 22.864502,-4.711975c3.74588,1.4935 3.369568,6.360138 7.479828,7.417999c4.788696,0.060028 9.518127,-2.753571 14.332489,-1.087219c9.210266,3.040802 14.414734,13.432831 9.299164,20.9216c-2.953369,2.301605 -8.163605,5.825806 -4.904663,9.634888c3.294067,3.335571 4.076355,8.853088 0.231049,12.120422c-6.481049,7.331573 -18.58548,9.508972 -28.607361,7.097992c-10.52832,-1.672913 -21.460419,-0.820709 -31.621216,1.981018c-3.363068,0.484955 -7.705536,2.646454 -10.335663,2.437286c-0.432892,-4.047424 5.214081,-4.796692 8.404816,-6.327118c10.555389,-5.262268 22.722198,-8.805023 31.10675,-16.73288c2.741608,-3.241638 1.171143,-9.230835 -4.000946,-9.726959c-7.141632,-0.408203 -13.07901,3.584259 -19.097839,6.231873c-5.808258,3.210266 -10.9953,7.361237 -14.621063,12.423981c2.247192,4.952484 -9.868835,2.712524 -5.341125,-0.976227zm13.668427,67.222198c-6.698242,-11.981354 -17.706329,-21.760773 -29.682251,-30.030121c-2.856171,6.435333 4.603119,11.198578 7.308899,16.53891c4.615967,4.886322 -5.143311,13.056091 -8.77005,6.133118c-8.321136,2.824432 1.119446,13.016724 -6.796661,16.989563c-6.596008,5.176514 -16.388062,-1.553345 -15.046173,-8.295441c-0.893341,-4.11908 7.704376,-10.410889 2.321991,-12.648254c-4.651154,3.627258 -14.504486,5.445099 -16.02243,-1.693451c-1.150726,-8.533569 8.207581,-15.054688 16.899109,-17.342255c6.916809,-5.479858 -6.779266,-7.661469 -10.897339,-4.643982c-18.17395,3.580811 -33.830322,15.235016 -40.839203,29.938965c-2.81427,8.294861 2.370483,17.664001 11.114136,21.740204c6.039673,5.011169 18.121368,1.319641 21.493073,9.223694c2.00769,6.78186 6.468079,12.708038 13.153687,16.796112c10.025665,6.084045 25.696991,6.062683 34.036804,-2.265106c3.850189,-7.620758 15.132019,-8.188965 21.067017,-13.921875c5.970886,-7.889008 4.386444,-18.188232 0.659393,-26.520081zm68.236786,-4.803009c-2.779297,-6.075745 -9.590912,-9.905548 -16.374939,-12.318207c5.190948,-3.314117 10.614319,-9.253326 7.407776,-14.996033c-7.69577,-12.444977 -24.82077,-18.506439 -40.726196,-18.22998c-12.591187,-0.000977 -25.225586,2.220032 -36.831665,6.338379c-3.474976,3.714874 5.864471,0.03772 7.951141,0.281891c10.280121,-1.225433 21.085205,0.963165 29.662994,5.866486c5.448303,4.580688 -2.603943,5.442688 -6.169464,6.711731c-2.913818,4.665924 6.347382,5.947998 8.25235,9.785217c4.060822,3.009216 3.363678,9.99118 -2.940704,10.052521c-6.984558,0.157196 -10.497253,-5.976654 -15.253998,-9.306549c-7.391663,-6.394318 -16.338135,-12.15451 -26.942261,-13.719757c-1.756042,4.225922 6.668518,5.665283 8.523956,9.217255c10.665558,9.311218 17.943848,20.969971 23.514679,32.988037c3.561218,7.06189 9.769775,14.343109 19.380005,15.366699c6.015503,0.938568 13.818573,-1.555176 14.735535,-7.283295c3.346375,-4.562958 11.04303,1.201202 16.033417,-1.908752c6.767609,-1.414856 11.020294,-7.072876 10.932007,-12.840393c0.085999,-2.039825 -0.275391,-4.102722 -1.154633,-6.005249z" stroke="#7f3f00" stroke-width="0"/>
   <path id="svg_17" fill="#ff7f00" d="m311.697052,276.09671c3.488129,-3.74115 -2.392487,-14.344696 7.384155,-12.252563c4.47049,-2.148773 8.947784,-9.899292 13.951721,-3.418884c3.666748,4.857788 10.819855,-1.312653 13.889221,4.548523c4.12149,4.017426 -2.078156,6.62384 -5.961761,4.459656c-8.562042,1.30542 -6.939331,10.684418 -3.357025,15.375916c1.791046,4.731079 7.40921,2.457947 6.843292,-1.725586c2.127899,-6.441223 12.744568,-0.359955 6.230164,3.656616c-6.293762,1.469299 -12.000854,6.81488 -7.231537,12.146423c2.847321,3.71991 6.572662,0.574677 6.766968,-2.694305c2.414368,-4.767151 12.746918,-1.513641 7.770477,2.866455c-5.397797,2.156036 -14.924164,4.618073 -11.445435,11.367859c2.950104,4.596191 7.781677,-0.28772 9.410675,-2.937866c6.47403,-3.239075 9.894958,7.199097 1.734406,6.159088c-8.281586,-0.761414 -10.741821,6.14325 -8.922913,11.810699c1.481293,10.359497 0.0961,20.913574 -2.648987,31.044098c-2.984985,9.944641 -8.10257,19.815582 -16.652557,27.161377c-6.674957,3.554657 -16.294983,-3.192352 -13.17157,-9.493835c2.089111,-7.447296 8.909363,-12.995911 11.922607,-20.121887c7.532928,-13.211884 12.911835,-27.655457 12.85675,-42.47168c-1.472076,-6.937683 -13.782196,0.364319 -15.292999,-6.241364c1.071014,-6.174683 10.690918,-2.596558 12.605042,0.470825c5.8396,-2.383728 0.853485,-11.848846 -5.196991,-11.367523c-4.683533,0.884888 -13.614288,-0.171631 -8.719421,-5.724335c5.307312,-4.299438 7.063782,5.949463 11.989624,3.183411c3.08313,-4.461304 -2.999878,-9.502838 -6.253906,-12.76358c-5.659058,-4.764648 -11.138275,3.619904 -17.04184,1.228363c-1.498718,-1.014282 -1.804596,-2.744263 -1.45816,-4.2659z" stroke="#7f3f00" stroke-width="0"/>
  </g>
 </g>
</svg>